<?xml version="1.0" encoding="utf-8"?>
<!-- Generator: Adobe Illustrator 24.1.3, SVG Export Plug-In . SVG Version: 6.00 Build 0)  -->
<svg version="1.1" id="圖層_1" xmlns="http://www.w3.org/2000/svg" xmlns:xlink="http://www.w3.org/1999/xlink" x="0px" y="0px"
	 viewBox="0 0 48.16 45.08" style="enable-background:new 0 0 48.16 45.08;" xml:space="preserve">
<style type="text/css">
	.st0{fill:#00C3FF;}
	.st1{fill:#00C114;}
	.st2{fill:#00C014;}
</style>
<g>
	<g>
		<path class="st0" d="M26.7,0C19.44,0,13.02,3.62,9.14,9.15c0.8,0.52,1.59,1.24,2.35,2.17c2.9-4.33,7.59-7.38,13.01-8.03l2.2,3.73
			l2.2-3.73c8.34,1,14.96,7.63,15.97,15.97l-3.73,2.2l3.73,2.2c-0.67,5.57-3.86,10.37-8.39,13.25c0.29,0.66,0.45,1.33,0.48,2.02
			c0.02,0.51-0.03,0.99-0.14,1.44c6.74-3.62,11.34-10.74,11.34-18.91C48.16,9.63,38.53,0,26.7,0z M32.17,35.34
			c-4.95-3.98-6.33-2.02-8.57,0.22c-1.57,1.57-5.53-1.71-8.96-5.13c-3.42-3.42-6.7-7.39-5.13-8.96c2.24-2.24,4.2-3.63,0.22-8.57
			c-3.98-4.95-6.63-1.15-8.8,1.03c-2.51,2.51-0.13,11.86,9.11,21.1c9.24,9.24,18.59,11.62,21.1,9.11
			C33.32,41.97,37.12,39.32,32.17,35.34z M17.11,24.82c0-4.4,5.15-5.18,5.15-6.9c0-0.83-0.67-1.18-1.28-1.18
			c-1.13,0-1.77,1.27-1.77,1.27l-2.17-1.45c0,0,1.1-2.57,4.2-2.57c1.95,0,4.06,1.12,4.06,3.65c0,3.71-4.8,4.43-4.88,5.96h5.06v2.5
			h-8.25C17.16,25.63,17.11,25.22,17.11,24.82z M26.71,21.45l4.6-7.26h3.56v6.61h1.42v2.41h-1.42v2.88h-2.88v-2.88h-5.28
			L26.71,21.45L26.71,21.45z M31.99,20.8v-2.67c0-0.65,0.1-1.33,0.1-1.33h-0.03c0,0-0.25,0.73-0.58,1.23l-1.8,2.73v0.03L31.99,20.8
			L31.99,20.8z"/>
	</g>
</g>
</svg>
