<svg id="圖層_1" data-name="圖層 1" xmlns="http://www.w3.org/2000/svg" viewBox="0 0 9.38 13.07"><defs><style>.cls-1{fill:#595757;}</style></defs><title>未命名-1</title><path class="cls-1" d="M4.7,13.07c-.51-.67-1-1.28-1.43-1.91A25.44,25.44,0,0,1,.47,6.52a4.79,4.79,0,0,1-.47-2,4.69,4.69,0,0,1,9.29-.8A4.28,4.28,0,0,1,9,6.41,23.35,23.35,0,0,1,6.4,10.75C5.86,11.52,5.29,12.26,4.7,13.07ZM3.9,5.46V5.4l-.07-.08A2.25,2.25,0,0,1,3.05,4a1.67,1.67,0,0,1,3.26-.7,2.11,2.11,0,0,1-.65,2l-.23.21A3.61,3.61,0,0,1,7.53,7a3.69,3.69,0,0,0-.15-5A3.77,3.77,0,0,0,2,2.06,3.68,3.68,0,0,0,1.86,7,3.48,3.48,0,0,1,3.9,5.46Zm.32.16c.4.26.23.53.14.8a7,7,0,0,1-.27.77,1.29,1.29,0,0,0,.23,1.66,3.16,3.16,0,0,1,.37.52c.3-.44.57-.81.82-1.2a.44.44,0,0,0,0-.28c-.14-.45-.31-.89-.45-1.34s-.36-.62.06-.93Z"/></svg>