<?xml version="1.0" encoding="utf-8"?>
<!-- Generator: Adobe Illustrator 24.1.3, SVG Export Plug-In . SVG Version: 6.00 Build 0)  -->
<svg version="1.1" id="圖層_1" xmlns="http://www.w3.org/2000/svg" xmlns:xlink="http://www.w3.org/1999/xlink" x="0px" y="0px"
	 viewBox="0 0 91.82 91.82" style="enable-background:new 0 0 91.82 91.82;" xml:space="preserve">
<style type="text/css">
	.st0{fill:#CC8B43;}
</style>
<g id="XMLID_1727_">
	<g id="XMLID_1101_">
		<path id="XMLID_1121_" class="st0" d="M16.73,18.38c-0.44-0.6-1.2-0.87-1.91-0.67c-0.72,0.19-1.24,0.8-1.32,1.54l-1.15,10.71
			c-0.11,0.98,0.61,1.87,1.59,1.97c0.07,0.01,0.13,0.01,0.19,0.01c0.9,0,1.68-0.68,1.78-1.6l0.66-6.09l3.61,4.95
			c0.58,0.8,1.71,0.97,2.51,0.39c0.8-0.58,0.97-1.71,0.39-2.51L16.73,18.38z"/>
		<path id="XMLID_1254_" class="st0" d="M86.44,13.63H56.12l-2.58-9.64c-0.37-1.39-1.26-2.55-2.51-3.27
			C49.79,0,48.34-0.19,46.95,0.19L3.99,11.7c-1.39,0.37-2.55,1.26-3.27,2.51C0,15.45-0.19,16.9,0.19,18.29l17.45,65.13
			c0.37,1.39,1.26,2.55,2.51,3.27c0.83,0.48,1.75,0.72,2.68,0.72c0.47,0,0.94-0.06,1.4-0.19l12.36-3.31v2.53
			c0,2.97,2.41,5.38,5.38,5.38h44.48c2.97,0,5.38-2.41,5.38-5.38V60.8c0-0.99-0.8-1.79-1.79-1.79s-1.79,0.8-1.79,1.79v25.65
			c0,0.99-0.8,1.79-1.79,1.79H41.97c-0.99,0-1.79-0.8-1.79-1.79V19.01c0-0.99,0.8-1.79,1.79-1.79h44.48c0.99,0,1.79,0.8,1.79,1.79
			v25.65c0,0.99,0.8,1.79,1.79,1.79s1.79-0.8,1.79-1.79V19.01C91.82,16.04,89.41,13.63,86.44,13.63z M36.59,50.94
			c-1.75,1.75-4.53,2.15-6.72,0.89c-2.65-1.53-3.57-4.94-2.03-7.59l5.84-10.12l2.91,1.68V50.94z M36.59,19.01v12.66l-2.67-1.54
			c-0.86-0.5-1.95-0.2-2.45,0.66l-6.74,11.67c-1.22,2.11-1.55,4.58-0.91,6.94c0.63,2.36,2.15,4.33,4.26,5.55
			c1.45,0.84,3.03,1.24,4.59,1.24c1.35,0,2.69-0.3,3.92-0.89V80.2L23.3,83.76c-0.46,0.12-0.95,0.06-1.36-0.18
			c-0.41-0.24-0.71-0.63-0.84-1.09L3.65,17.36c-0.26-0.96,0.31-1.94,1.27-2.2L47.88,3.65c0.46-0.12,0.95-0.06,1.36,0.18
			c0.41,0.24,0.71,0.63,0.84,1.09l2.33,8.71H41.97C39,13.63,36.59,16.04,36.59,19.01L36.59,19.01z"/>
		<path id="XMLID_1258_" class="st0" d="M55.4,35.75c0.92-0.36,1.38-1.4,1.03-2.32l-3.88-10.04c-0.27-0.69-0.93-1.15-1.67-1.15
			c-0.74,0-1.41,0.46-1.67,1.15l-3.88,10.04c-0.36,0.92,0.1,1.96,1.03,2.32c0.21,0.08,0.43,0.12,0.65,0.12
			c0.72,0,1.4-0.44,1.67-1.15l2.21-5.72l2.21,5.72C53.44,35.65,54.48,36.11,55.4,35.75L55.4,35.75z"/>
		<path id="XMLID_1259_" class="st0" d="M75.86,82.07c0.27,0.69,0.93,1.15,1.67,1.15s1.41-0.46,1.67-1.15l3.88-10.04
			c0.36-0.92-0.1-1.96-1.03-2.32c-0.92-0.36-1.96,0.1-2.32,1.03l-2.21,5.72l-2.21-5.72c-0.36-0.92-1.4-1.38-2.32-1.03
			c-0.92,0.36-1.38,1.4-1.03,2.32L75.86,82.07z"/>
		<path id="XMLID_1324_" class="st0" d="M62.94,66.37c0.35,0.35,0.81,0.53,1.27,0.53c0.46,0,0.92-0.18,1.27-0.53L75,56.84
			c3.56-3.56,3.56-9.37,0-12.93v0c-2.91-2.91-7.28-3.5-10.8-1.59c-3.52-1.91-7.89-1.32-10.8,1.59c-3.56,3.56-3.56,9.37,0,12.93
			L62.94,66.37z M55.94,46.45c1.07-1.07,2.5-1.62,3.94-1.62c1.14,0,2.29,0.35,3.26,1.05c0.63,0.46,1.49,0.46,2.12,0
			c2.19-1.6,5.28-1.36,7.2,0.56c2.17,2.17,2.17,5.69,0,7.86l-8.26,8.26l-8.26-8.26C53.78,52.14,53.78,48.61,55.94,46.45L55.94,46.45
			z"/>
		<path id="XMLID_1325_" class="st0" d="M90.03,50.93c-0.47,0-0.93,0.19-1.27,0.53c-0.33,0.33-0.53,0.8-0.53,1.27
			s0.19,0.93,0.53,1.27c0.33,0.33,0.8,0.53,1.27,0.53s0.93-0.19,1.27-0.53c0.33-0.33,0.53-0.8,0.53-1.27s-0.19-0.93-0.53-1.27
			S90.5,50.93,90.03,50.93z"/>
	</g>
</g>
</svg>
