<?xml version="1.0" encoding="utf-8"?>
<!-- Generator: Adobe Illustrator 24.1.3, SVG Export Plug-In . SVG Version: 6.00 Build 0)  -->
<svg version="1.1" id="圖層_1" xmlns="http://www.w3.org/2000/svg" xmlns:xlink="http://www.w3.org/1999/xlink" x="0px" y="0px"
	 viewBox="0 0 60 60" style="enable-background:new 0 0 60 60;" xml:space="preserve">
<style type="text/css">
	.st0{fill:#CC8B43;}
</style>
<g>
	<g>
		<g>
			<path class="st0" d="M58.75,57.5H1.25C0.56,57.5,0,58.06,0,58.75S0.56,60,1.25,60h57.5c0.69,0,1.25-0.56,1.25-1.25
				C60,58.06,59.44,57.5,58.75,57.5z"/>
		</g>
	</g>
	<g>
		<g>
			<path class="st0" d="M11.25,42.5h-7.5c-0.69,0-1.25,0.56-1.25,1.25v15C2.5,59.44,3.06,60,3.75,60h7.5c0.69,0,1.25-0.56,1.25-1.25
				v-15C12.5,43.06,11.94,42.5,11.25,42.5z M10,57.5H5V45h5L10,57.5L10,57.5z"/>
		</g>
	</g>
	<g>
		<g>
			<path class="st0" d="M26.25,30h-7.5c-0.69,0-1.25,0.56-1.25,1.25v27.5c0,0.69,0.56,1.25,1.25,1.25h7.5
				c0.69,0,1.25-0.56,1.25-1.25v-27.5C27.5,30.56,26.94,30,26.25,30z M25,57.5h-5v-25h5L25,57.5L25,57.5z"/>
		</g>
	</g>
	<g>
		<g>
			<path class="st0" d="M41.25,35h-7.5c-0.69,0-1.25,0.56-1.25,1.25v22.5c0,0.69,0.56,1.25,1.25,1.25h7.5
				c0.69,0,1.25-0.56,1.25-1.25v-22.5C42.5,35.56,41.94,35,41.25,35z M40,57.5h-5v-20h5V57.5z"/>
		</g>
	</g>
	<g>
		<g>
			<path class="st0" d="M56.25,20h-7.5c-0.69,0-1.25,0.56-1.25,1.25v37.5c0,0.69,0.56,1.25,1.25,1.25h7.5
				c0.69,0,1.25-0.56,1.25-1.25v-37.5C57.5,20.56,56.94,20,56.25,20z M55,57.5h-5v-35h5V57.5z"/>
		</g>
	</g>
	<g>
		<g>
			<path class="st0" d="M7.5,22.5c-2.76,0-5,2.24-5,5s2.24,5,5,5s5-2.24,5-5S10.26,22.5,7.5,22.5z M7.5,30C6.12,30,5,28.88,5,27.5
				C5,26.12,6.12,25,7.5,25s2.5,1.12,2.5,2.5S8.88,30,7.5,30z"/>
		</g>
	</g>
	<g>
		<g>
			<path class="st0" d="M22.5,10c-2.76,0-5,2.24-5,5s2.24,5,5,5s5-2.24,5-5C27.5,12.24,25.26,10,22.5,10z M22.5,17.5
				c-1.38,0-2.5-1.12-2.5-2.5c0-1.38,1.12-2.5,2.5-2.5S25,13.62,25,15C25,16.38,23.88,17.5,22.5,17.5z"/>
		</g>
	</g>
	<g>
		<g>
			<path class="st0" d="M37.5,15c-2.76,0-5,2.24-5,5s2.24,5,5,5s5-2.24,5-5S40.26,15,37.5,15z M37.5,22.5c-1.38,0-2.5-1.12-2.5-2.5
				c0-1.38,1.12-2.5,2.5-2.5S40,18.62,40,20S38.88,22.5,37.5,22.5z"/>
		</g>
	</g>
	<g>
		<g>
			<path class="st0" d="M52.5,0c-2.76,0-5,2.24-5,5s2.24,5,5,5s5-2.24,5-5S55.26,0,52.5,0z M52.5,7.5C51.12,7.5,50,6.38,50,5
				c0-1.38,1.12-2.5,2.5-2.5S55,3.62,55,5S53.88,7.5,52.5,7.5z"/>
		</g>
	</g>
	<g>
		<g>
			<path class="st0" d="M50.73,6.76c-0.49-0.49-1.28-0.49-1.77,0l-9.7,9.7c-0.49,0.49-0.49,1.28,0,1.77
				c0.25,0.24,0.56,0.37,0.88,0.37c0.32,0,0.64-0.12,0.88-0.37l9.7-9.7C51.22,8.05,51.22,7.25,50.73,6.76z"/>
		</g>
	</g>
	<g>
		<g>
			<path class="st0" d="M34.48,17.11l-8.03-2.29c-0.67-0.19-1.36,0.19-1.54,0.86c-0.19,0.67,0.19,1.36,0.86,1.54l8.03,2.29
				c0.11,0.03,0.23,0.05,0.34,0.05c0.55,0,1.04-0.36,1.2-0.91C35.53,18,35.14,17.3,34.48,17.11z"/>
		</g>
	</g>
	<g>
		<g>
			<path class="st0" d="M20.55,16.56c-0.43-0.54-1.21-0.63-1.75-0.2l-9.43,7.51c-0.54,0.43-0.63,1.22-0.2,1.76
				c0.25,0.31,0.61,0.47,0.98,0.47c0.27,0,0.55-0.09,0.78-0.27l9.43-7.51C20.89,17.88,20.98,17.1,20.55,16.56z"/>
		</g>
	</g>
</g>
</svg>
