<?xml version="1.0" encoding="utf-8"?>
<!-- Generator: Adobe Illustrator 24.1.3, SVG Export Plug-In . SVG Version: 6.00 Build 0)  -->
<svg version="1.1" id="圖層_1" xmlns="http://www.w3.org/2000/svg" xmlns:xlink="http://www.w3.org/1999/xlink" x="0px" y="0px"
	 viewBox="0 0 11.7 16.5" style="enable-background:new 0 0 11.7 16.5;" xml:space="preserve">
<style type="text/css">
	.st0{fill:#E11515;}
</style>
<g>
	<path class="st0" d="M6,16.4c-0.2,0.1-0.5,0.1-0.7,0.1c-0.3-0.1-0.6-0.2-0.8-0.5c0-0.1-0.1-0.1-0.1-0.2C3,13.3,1.6,10.9,0.3,8.5
		C0,8-0.1,7.5,0.1,6.9c0.3-1.1,0.7-2.2,1-3.3c0.2-0.6,0.5-0.9,1.1-1c0.1,0,0.3,0,0.4,0c0.1,0,0.2,0,0.3-0.1c0.5-0.7,1-1.3,1.7-1.8
		C5,0.4,5.5,0.1,6.1,0C7-0.1,7.6,0.4,7.7,1.3c0,0.7-0.2,1.3-0.4,1.9C7.1,3.4,7,3.6,6.9,3.9C7.4,4.4,7.7,5,8,5.6
		c1.2,2,2.3,4.1,3.5,6.1c0.3,0.5,0.3,1,0,1.4c-0.1,0.1-0.2,0.2-0.3,0.3C9.4,14.5,7.7,15.4,6,16.4z M4.3,5.3c0.1,0,0.1-0.1,0.1-0.1
		c0,0,0,0,0,0c0.9-0.8,1.7-1.8,2.1-3c0.1-0.3,0.1-0.5,0.1-0.8c0-0.2-0.1-0.2-0.3-0.2c-0.3,0-0.5,0.1-0.8,0.3C5.1,1.6,4.7,2,4.3,2.4
		C4.2,2.6,4,2.7,3.9,2.9c0.5,0.1,0.9,0.3,1.4,0.4c0,0,0,0,0,0c-0.4,0.5-0.8,1-1.3,1.5c-0.1,0.1-0.1,0.1-0.2,0C3.4,4.7,3.1,4.8,2.8,5
		C2.4,5.3,2.3,5.8,2.4,6.2C2.6,6.6,3,6.9,3.5,6.9C4,6.8,4.3,6.5,4.4,6C4.5,5.8,4.4,5.5,4.3,5.3z M5.3,9.9C5,9.4,4.4,9.2,3.9,9.5
		C3.3,9.8,3.2,10.5,3.4,11c0.3,0.5,1,0.7,1.5,0.4C5.4,11.1,5.6,10.4,5.3,9.9z M7.2,9.7c-0.5,0.3-0.7,0.9-0.4,1.5
		c0.3,0.5,0.9,0.7,1.5,0.4c0.5-0.3,0.7-0.9,0.4-1.5C8.4,9.6,7.8,9.4,7.2,9.7z M6.7,8.2c-0.1,0-0.2-0.1-0.3-0.1
		c-0.1,0-0.2,0.1-0.2,0.3c-0.3,1.4-0.5,2.8-0.8,4.3c0,0.1,0,0.1,0,0.2c0,0.1,0.1,0.2,0.3,0.2c0.1,0,0.2-0.1,0.3-0.2
		c0.3-1.4,0.5-2.9,0.8-4.3C6.7,8.4,6.7,8.3,6.7,8.2z"/>
	<path class="st0" d="M4.2,10.1c0.2-0.1,0.5,0,0.6,0.2c0.1,0.2,0,0.5-0.2,0.6c-0.2,0.1-0.5,0-0.6-0.2C3.9,10.4,4,10.2,4.2,10.1z"/>
	<path class="st0" d="M8.1,10.4C8.3,10.6,8.2,10.9,8,11c-0.2,0.1-0.5,0.1-0.6-0.2c-0.1-0.2,0-0.5,0.2-0.6C7.7,10.1,8,10.2,8.1,10.4z
		"/>
</g>
</svg>
