<?xml version="1.0" encoding="utf-8"?>
<!-- Generator: Adobe Illustrator 24.1.3, SVG Export Plug-In . SVG Version: 6.00 Build 0)  -->
<svg version="1.1" id="圖層_1" xmlns="http://www.w3.org/2000/svg" xmlns:xlink="http://www.w3.org/1999/xlink" x="0px" y="0px"
	 viewBox="0 0 37.96 34" style="enable-background:new 0 0 37.96 34;" xml:space="preserve">
<style type="text/css">
	.st0{fill:url(#SVGID_1_);}
	.st1{fill:url(#SVGID_2_);}
	.st2{fill:url(#SVGID_3_);}
	.st3{fill:url(#SVGID_4_);}
	.st4{fill:url(#SVGID_5_);}
	.st5{fill:url(#SVGID_6_);}
	.st6{fill:url(#SVGID_7_);}
	.st7{fill:url(#SVGID_8_);}
	.st8{fill:#E11515;}
	.st9{fill:url(#SVGID_9_);}
	.st10{fill:url(#SVGID_10_);}
	.st11{fill:url(#SVGID_11_);}
	.st12{fill:url(#SVGID_12_);}
	.st13{fill:#FFFFFF;}
</style>
<g>
	<g>
		
			<linearGradient id="SVGID_1_" gradientUnits="userSpaceOnUse" x1="14.787" y1="4.3797" x2="14.787" y2="34.165" gradientTransform="matrix(1 3.900000e-03 -3.900000e-03 1 0.9639 -1.3491)">
			<stop  offset="0" style="stop-color:#EF0C29"/>
			<stop  offset="0.5185" style="stop-color:#E73832"/>
			<stop  offset="1" style="stop-color:#950000"/>
		</linearGradient>
		<path class="st0" d="M25.07,0.07c2.39,0.52,3.48,1.96,3.95,4.02c0.63,2.74,1.46,5.45,2.21,8.17c0.06,0.24,0.11,0.48,0.18,0.8
			c-0.42,0-0.75,0-1.08,0C24.64,13.03,18.96,13,13.28,13c-3.2,0-5.69,1.17-7.06,3.77c-0.48,0.92-0.58,2.01-0.75,3.04
			c-0.11,0.63-0.02,1.29-0.03,2.1c-1.23-0.51-2.05-1.2-2.41-2.21c-0.37-1.05-0.63-2.13-0.92-3.2c-0.66-2.4-1.35-4.8-1.97-7.22
			C-0.46,6.92,0.84,5.01,3.5,4.44c6.66-1.43,13.33-2.82,20-4.23c0.13-0.03,0.26-0.09,0.38-0.14C24.28,0.07,24.68,0.07,25.07,0.07z
			 M21.02,6.75c0.41,1.51,0.8,2.96,1.21,4.46c1.72-0.37,3.36-0.72,5.06-1.08c-0.42-1.52-0.82-2.96-1.23-4.45
			C24.36,6.04,22.77,6.38,21.02,6.75z"/>
		
			<linearGradient id="SVGID_2_" gradientUnits="userSpaceOnUse" x1="22.3228" y1="4.3798" x2="22.3228" y2="34.1652" gradientTransform="matrix(1 3.900000e-03 -3.900000e-03 1 0.9639 -1.3491)">
			<stop  offset="0" style="stop-color:#EF0C29"/>
			<stop  offset="0.5185" style="stop-color:#E73832"/>
			<stop  offset="1" style="stop-color:#950000"/>
		</linearGradient>
		<path class="st1" d="M12.15,33.85c-0.68-0.29-1.43-0.5-2.03-0.88c-1.13-0.71-1.68-1.77-1.68-2.98c-0.01-3.5-0.02-7.01,0.04-10.51
			c0.04-2.2,1.94-3.81,4.44-3.8c6.84,0.01,13.68,0.04,20.52,0.08c2.22,0.01,3.8,1.15,4.36,3.05c0.03,0.09,0.1,0.17,0.15,0.26
			c-0.01,3.86-0.03,7.72-0.05,11.57c-0.52,1.75-1.78,2.84-3.76,3.29C26.82,33.9,19.48,33.87,12.15,33.85z M10.77,24.73
			c-0.01,1.61-0.01,3.14-0.02,4.66c0,1.8,0.65,2.38,2.69,2.39c5.76,0.02,11.53,0.05,17.29,0.07c0.94,0,1.87,0.03,2.81,0
			c1.17-0.04,1.94-0.73,2.01-1.76c0.04-0.62,0.02-1.25,0.02-1.88c0.01-1.12,0.01-2.23,0.01-3.38
			C27.27,24.79,19.08,24.76,10.77,24.73z M35.53,20.93c0.35-2.12-0.27-3.23-3.04-3.19c-4.6,0.07-9.2-0.01-13.8-0.03
			c-1.9-0.01-3.8-0.03-5.71-0.01c-1.12,0.01-1.98,0.56-2.12,1.4c-0.09,0.55-0.02,1.13-0.02,1.73C19.1,20.87,27.29,20.9,35.53,20.93z
			"/>
	</g>
</g>
</svg>
