<?xml version="1.0" encoding="utf-8"?>
<!-- Generator: Adobe Illustrator 24.1.3, SVG Export Plug-In . SVG Version: 6.00 Build 0)  -->
<svg version="1.1" id="圖層_1" xmlns="http://www.w3.org/2000/svg" xmlns:xlink="http://www.w3.org/1999/xlink" x="0px" y="0px"
	 viewBox="0 0 37.96 34" style="enable-background:new 0 0 37.96 34;" xml:space="preserve">
<style type="text/css">
	.st0{fill:url(#SVGID_1_);}
	.st1{fill:url(#SVGID_2_);}
	.st2{fill:url(#SVGID_3_);}
	.st3{fill:url(#SVGID_4_);}
	.st4{fill:url(#SVGID_5_);}
	.st5{fill:url(#SVGID_6_);}
	.st6{fill:url(#SVGID_7_);}
	.st7{fill:url(#SVGID_8_);}
	.st8{fill:#E11515;}
	.st9{fill:url(#SVGID_9_);}
	.st10{fill:url(#SVGID_10_);}
	.st11{fill:url(#SVGID_11_);}
	.st12{fill:url(#SVGID_12_);}
	.st13{fill:#FFFFFF;}
</style>
<g>
	<linearGradient id="SVGID_1_" gradientUnits="userSpaceOnUse" x1="15.7459" y1="0.0864" x2="15.7459" y2="35.9087">
		<stop  offset="0" style="stop-color:#EF0C29"/>
		<stop  offset="0.5185" style="stop-color:#E73832"/>
		<stop  offset="1" style="stop-color:#950000"/>
	</linearGradient>
	<path class="st0" d="M24.3,26.31c-0.39,0-0.76-0.07-1.14-0.12c0,0.29,0,0.58,0,0.87c-4.96,0-9.85,0-14.82,0c0-6.71,0-13.4,0-20.12
		c4.98,0,9.86,0,14.82,0c0,0.29,0,0.58,0,0.87c0.38-0.05,0.75-0.12,1.14-0.12c0.42,0,0.81,0.07,1.22,0.12c0-1.3,0-2.61,0-3.91
		c0-2.42-1.49-3.9-3.92-3.9C17.7,0,13.8,0,9.91,0C7.45,0,5.98,1.48,5.98,3.95c0,5.15,0,10.3,0,15.45c0,3.59,0,7.18,0,10.77
		C5.98,32.48,7.5,34,9.82,34c3.95,0,7.9,0,11.85,0c2.34,0,3.85-1.52,3.85-3.87c0-1.32,0-2.63,0-3.95
		C25.11,26.24,24.71,26.31,24.3,26.31z M13.37,3.02c1.59,0,3.17,0,4.76,0c0.3,0,0.57,0.06,0.59,0.41c0.02,0.39-0.27,0.46-0.59,0.46
		c-0.79,0-1.59,0-2.38,0c-0.79,0-1.59,0-2.38,0c-0.32,0-0.6-0.09-0.59-0.46C12.79,3.08,13.07,3.02,13.37,3.02z M15.74,31.66
		c-0.63-0.01-1.12-0.51-1.1-1.14c0.02-0.61,0.5-1.07,1.12-1.07c0.62,0,1.09,0.48,1.1,1.09C16.86,31.17,16.37,31.66,15.74,31.66z"/>
	<linearGradient id="SVGID_2_" gradientUnits="userSpaceOnUse" x1="24.4175" y1="0.0864" x2="24.4175" y2="35.9085">
		<stop  offset="0" style="stop-color:#EF0C29"/>
		<stop  offset="0.5185" style="stop-color:#E73832"/>
		<stop  offset="1" style="stop-color:#950000"/>
	</linearGradient>
	<path class="st1" d="M24.42,9.44c-4.18,0-7.56,3.39-7.56,7.56c0,1.61,0.51,3.09,1.36,4.31l-0.82,2.12l2.32-0.55
		c1.29,1.03,2.91,1.68,4.7,1.68c4.18,0,7.56-3.39,7.56-7.56C31.98,12.82,28.59,9.44,24.42,9.44z M20.42,17.96
		c-0.53,0-0.96-0.43-0.96-0.96c0-0.53,0.43-0.96,0.96-0.96c0.53,0,0.96,0.43,0.96,0.96C21.37,17.53,20.94,17.96,20.42,17.96z
		 M24.56,17.96c-0.53,0-0.96-0.43-0.96-0.96c0-0.53,0.43-0.96,0.96-0.96c0.53,0,0.96,0.43,0.96,0.96
		C25.51,17.53,25.08,17.96,24.56,17.96z M28.68,17.96c-0.53,0-0.96-0.43-0.96-0.96c0-0.53,0.43-0.96,0.96-0.96s0.96,0.43,0.96,0.96
		C29.64,17.53,29.21,17.96,28.68,17.96z"/>
</g>
</svg>
