<svg xmlns="http://www.w3.org/2000/svg" viewBox="0 0 47.02 41.04"><defs><style>.cls-1{fill:#b0b0b1;}</style></defs><title>0</title><g id="登入"><path class="cls-1" d="M16.37,11.78a26.32,26.32,0,0,1,2.31,1.35,34.84,34.84,0,0,1,6.5,6.51A43.33,43.33,0,0,1,31.25,29a10.55,10.55,0,0,1,.61,1.74,1.85,1.85,0,0,1-1.51,2.53c-4.19,1-8.33,2.19-12.49,3.3L1.35,41c-.12,0-.25.11-.36.09C.69,41,.27,41,.13,40.77a1.1,1.1,0,0,1,0-.94C1.1,37.88,2.16,36,3.21,34L14.52,13.29c.09-.16.16-.33.24-.49a1.39,1.39,0,0,1,1.53-.88Zm5,22.14A24.87,24.87,0,0,1,10.84,23.4c-.46.84-.85,1.58-1.27,2.3a.94.94,0,0,0,0,1,15.08,15.08,0,0,1,1.39,7.48c-.09.89-.31,1.76-.48,2.71ZM12,21.47l-.14.09A3.22,3.22,0,0,0,12,22a21.55,21.55,0,0,0,11.82,11,.8.8,0,0,0,.41.1c1.28-.32,2.56-.67,3.88-1-.1-.11-.13-.17-.18-.21A36.58,36.58,0,0,1,22,26a1.84,1.84,0,0,0-1.44-.73,12.53,12.53,0,0,1-8.32-3.6C12.14,21.61,12,21.55,12,21.47Zm4.49-7.95-.29.2c.36.87.65,1.77,1.08,2.61a47.87,47.87,0,0,0,7.82,10.76,54.22,54.22,0,0,0,4,3.69,7.45,7.45,0,0,0,1.3.76,5.59,5.59,0,0,0-.15-.72,11.68,11.68,0,0,0-.54-1.43,48.46,48.46,0,0,0-11.33-14.5A20.21,20.21,0,0,0,16.45,13.52ZM8.35,28,2.31,39C4.22,38.52,6,38,7.7,37.6a1.22,1.22,0,0,0,.89-.74C9.92,33.92,9.42,31,8.35,28Zm11.5-4.31L15,15.77c-.63,1.17-1.3,2.42-2,3.66a.62.62,0,0,0,.11.86A10.62,10.62,0,0,0,19.85,23.64Z"/><path class="cls-1" d="M31.38,24.19c-.73-.09-1-.69-.78-1.18a1.14,1.14,0,0,1,.18-.25,16.67,16.67,0,0,1,8.8-4.83,2.72,2.72,0,0,1,.49-.05.79.79,0,0,1,.16,1.57,21.67,21.67,0,0,0-2.38.57A17,17,0,0,0,32,23.74,4.09,4.09,0,0,1,31.38,24.19Z"/><path class="cls-1" d="M21,13.68c-.81-.12-1-.69-.73-1.31.49-1,1-2,1.43-3a8.11,8.11,0,0,0,.56-4.22c-.08-.56.17-1,.63-1a.81.81,0,0,1,.93.76,9.28,9.28,0,0,1-.57,4.89,28.89,28.89,0,0,1-1.59,3.32C21.56,13.39,21.19,13.55,21,13.68Z"/><path class="cls-1" d="M30.05,12.68a4.55,4.55,0,0,1-.35.58,12.91,12.91,0,0,1-4,3.14A.8.8,0,1,1,25,15a13.4,13.4,0,0,0,3.52-2.75,1.18,1.18,0,0,1,1-.23C29.71,12.06,29.87,12.45,30.05,12.68Z"/><path class="cls-1" d="M36,27.25a21.9,21.9,0,0,1,2.08.93.77.77,0,0,1,.29,1.2.8.8,0,0,1-1.2.11A4.24,4.24,0,0,0,33.76,29c-.88.17-1.29,0-1.4-.52s.24-.91,1.08-1S35.06,27.33,36,27.25Z"/><path class="cls-1" d="M41.53,30.75a.8.8,0,0,1,.31-1.56.77.77,0,0,1,.67.88A.81.81,0,0,1,41.53,30.75Z"/><path class="cls-1" d="M24.48,2.4a.77.77,0,0,1-.64-.84.75.75,0,0,1,.87-.72.79.79,0,0,1,.71.89A.85.85,0,0,1,24.48,2.4Z"/><path class="cls-1" d="M37.88,14.91a.78.78,0,0,1-.94.66.72.72,0,0,1-.62-.89.73.73,0,0,1,.86-.67A.79.79,0,0,1,37.88,14.91Z"/><path class="cls-1" d="M34.61,25.82a.77.77,0,0,1-.69-.9.73.73,0,0,1,.87-.66.75.75,0,0,1,.7.84A.77.77,0,0,1,34.61,25.82Z"/><path class="cls-1" d="M28.1,18.4a.77.77,0,0,1-.86.7.79.79,0,0,1-.72-.9.75.75,0,0,1,.89-.66C27.9,17.59,28.1,17.92,28.1,18.4Z"/><path class="cls-1" d="M17.13,8.81A.75.75,0,0,1,18,8.22a.73.73,0,0,1,.65.88.75.75,0,0,1-.92.66A.79.79,0,0,1,17.13,8.81Z"/><path class="cls-1" d="M17.49,6.72l-1.67-.09a.41.41,0,0,0-.36.16l-1,1.32A.42.42,0,0,1,13.69,8l-.43-1.62A.38.38,0,0,0,13,6.05l-1.58-.57a.42.42,0,0,1-.08-.75l1.41-.91a.39.39,0,0,0,.19-.34L13,1.8a.42.42,0,0,1,.69-.31L15,2.55a.42.42,0,0,0,.39.08L17,2.17a.42.42,0,0,1,.51.56l-.61,1.56a.42.42,0,0,0,0,.39l.94,1.39A.41.41,0,0,1,17.49,6.72Z"/><path class="cls-1" d="M42.37,4.3,40.6,6.2a.62.62,0,0,0-.16.58L41,9.32a.66.66,0,0,1-.92.73L37.73,9a.66.66,0,0,0-.61,0L34.88,10.3a.66.66,0,0,1-1-.65l.32-2.58A.69.69,0,0,0,34,6.5L32.06,4.78a.65.65,0,0,1,.31-1.13l2.55-.5a.66.66,0,0,0,.48-.38l1-2.38a.65.65,0,0,1,1.17,0l1.26,2.27a.64.64,0,0,0,.51.34L42,3.2A.65.65,0,0,1,42.37,4.3Z"/><path class="cls-1" d="M46.57,26.25l-1.67-.09a.42.42,0,0,0-.36.16l-1,1.32a.42.42,0,0,1-.74-.15l-.42-1.62a.42.42,0,0,0-.27-.29L40.5,25a.43.43,0,0,1-.08-.76l1.41-.9A.42.42,0,0,0,42,23l0-1.68a.42.42,0,0,1,.69-.31l1.3,1.06a.4.4,0,0,0,.38.08l1.61-.46a.42.42,0,0,1,.51.56L46,23.82a.42.42,0,0,0,0,.39L47,25.6A.42.42,0,0,1,46.57,26.25Z"/><path class="cls-1" d="M36.6,35.56l-.8-.05a.23.23,0,0,0-.18.08l-.49.64a.21.21,0,0,1-.36-.07l-.21-.79a.21.21,0,0,0-.12-.14L33.67,35a.2.2,0,0,1,0-.36l.68-.44a.2.2,0,0,0,.1-.16l0-.81a.2.2,0,0,1,.33-.15l.62.51a.22.22,0,0,0,.19,0l.78-.23a.2.2,0,0,1,.24.27l-.29.76a.17.17,0,0,0,0,.18l.45.67A.2.2,0,0,1,36.6,35.56Z"/></g></svg>