<?xml version="1.0" encoding="utf-8"?>
<!-- Generator: Adobe Illustrator 24.1.3, SVG Export Plug-In . SVG Version: 6.00 Build 0)  -->
<svg version="1.1" id="圖層_1" xmlns="http://www.w3.org/2000/svg" xmlns:xlink="http://www.w3.org/1999/xlink" x="0px" y="0px"
	 viewBox="0 0 61.08 58.54" style="enable-background:new 0 0 61.08 58.54;" xml:space="preserve">
<style type="text/css">
	.st0{fill:#CC8B43;}
</style>
<g>
	<path class="st0" d="M17.82,58.54C9.18,58.54,0,55.86,0,50.9c0-0.7,0.57-1.27,1.27-1.27s1.27,0.57,1.27,1.27
		c0,2.13,5.81,5.09,15.27,5.09s15.27-2.97,15.27-5.09c0-0.7,0.57-1.27,1.27-1.27s1.27,0.57,1.27,1.27
		C35.63,55.86,26.45,58.54,17.82,58.54z"/>
	<path class="st0" d="M17.82,50.9C9.18,50.9,0,48.22,0,43.27c0-0.7,0.57-1.27,1.27-1.27s1.27,0.57,1.27,1.27
		c0,2.13,5.81,5.09,15.27,5.09s15.27-2.97,15.27-5.09c0-0.7,0.57-1.27,1.27-1.27s1.27,0.57,1.27,1.27
		C35.63,48.22,26.45,50.9,17.82,50.9z"/>
	<path class="st0" d="M17.82,43.27C9.18,43.27,0,40.59,0,35.63C0,30.67,9.18,28,17.82,28s17.82,2.68,17.82,7.64
		C35.63,40.59,26.45,43.27,17.82,43.27z M17.82,30.54c-9.46,0-15.27,2.97-15.27,5.09c0,2.13,5.81,5.09,15.27,5.09
		s15.27-2.97,15.27-5.09C33.09,33.51,27.28,30.54,17.82,30.54z"/>
	<path class="st0" d="M1.27,52.17C0.57,52.17,0,51.6,0,50.9V35.63c0-0.7,0.57-1.27,1.27-1.27s1.27,0.57,1.27,1.27V50.9
		C2.55,51.6,1.98,52.17,1.27,52.17z"/>
	<path class="st0" d="M34.36,52.17c-0.7,0-1.27-0.57-1.27-1.27V35.63c0-0.7,0.57-1.27,1.27-1.27s1.27,0.57,1.27,1.27V50.9
		C35.63,51.6,35.06,52.17,34.36,52.17z"/>
	<path class="st0" d="M43.27,28c-8.64,0-17.82-2.68-17.82-7.64c0-0.7,0.57-1.27,1.27-1.27c0.7,0,1.27,0.57,1.27,1.27
		c0,2.13,5.81,5.09,15.27,5.09s15.27-2.97,15.27-5.09c0-0.7,0.57-1.27,1.27-1.27c0.7,0,1.27,0.57,1.27,1.27
		C61.08,25.32,51.9,28,43.27,28z"/>
	<path class="st0" d="M43.27,43.27c-1.47,0-2.77-0.06-3.95-0.19c-0.7-0.07-1.21-0.7-1.13-1.4c0.08-0.7,0.7-1.21,1.4-1.13
		c1.09,0.11,2.3,0.17,3.68,0.17c9.46,0,15.27-2.97,15.27-5.09c0-0.7,0.57-1.27,1.27-1.27c0.7,0,1.27,0.57,1.27,1.27
		C61.08,40.59,51.9,43.27,43.27,43.27z"/>
	<path class="st0" d="M43.27,50.9c-1.47,0-2.77-0.06-3.95-0.19c-0.7-0.07-1.21-0.7-1.13-1.4c0.07-0.7,0.7-1.22,1.4-1.13
		c1.09,0.11,2.3,0.17,3.68,0.17c9.46,0,15.27-2.97,15.27-5.09c0-0.7,0.57-1.27,1.27-1.27c0.7,0,1.27,0.57,1.27,1.27
		C61.08,48.22,51.9,50.9,43.27,50.9z"/>
	<path class="st0" d="M43.27,35.63c-1.47,0-2.77-0.06-3.95-0.19c-0.7-0.07-1.21-0.7-1.13-1.4c0.07-0.7,0.7-1.21,1.4-1.13
		c1.09,0.11,2.3,0.17,3.68,0.17c9.46,0,15.27-2.97,15.27-5.09c0-0.7,0.57-1.27,1.27-1.27c0.7,0,1.27,0.57,1.27,1.27
		C61.08,32.95,51.9,35.63,43.27,35.63z"/>
	<path class="st0" d="M43.27,20.36c-8.64,0-17.82-2.68-17.82-7.64s9.18-7.64,17.82-7.64s17.82,2.68,17.82,7.64
		S51.9,20.36,43.27,20.36z M43.27,7.64C33.8,7.64,28,10.6,28,12.73s5.81,5.09,15.27,5.09s15.27-2.97,15.27-5.09
		S52.73,7.64,43.27,7.64z"/>
	<path class="st0" d="M26.72,21.63c-0.7,0-1.27-0.57-1.27-1.27v-7.64c0-0.7,0.57-1.27,1.27-1.27c0.7,0,1.27,0.57,1.27,1.27v7.64
		C28,21.06,27.43,21.63,26.72,21.63z"/>
	<path class="st0" d="M1.27,15.27c-0.33,0-0.65-0.12-0.9-0.37c-0.5-0.5-0.5-1.3,0-1.8l6.36-6.36C7.12,6.35,7.71,6.26,8.21,6.5
		l4.27,2.14l8.26-8.26c0.5-0.5,1.3-0.5,1.8,0s0.5,1.3,0,1.8l-8.91,8.91c-0.39,0.38-0.98,0.48-1.47,0.24L7.89,9.18L2.17,14.9
		C1.92,15.15,1.6,15.27,1.27,15.27L1.27,15.27z"/>
	<path class="st0" d="M21.63,10.18c-0.7,0-1.27-0.57-1.27-1.27V2.55H14c-0.7,0-1.27-0.57-1.27-1.27S13.3,0,14,0h7.64
		c0.7,0,1.27,0.57,1.27,1.27v7.64C22.91,9.61,22.34,10.18,21.63,10.18z"/>
</g>
</svg>
