<?xml version="1.0" encoding="utf-8"?>
<!-- Generator: Adobe Illustrator 24.1.3, SVG Export Plug-In . SVG Version: 6.00 Build 0)  -->
<svg version="1.1" id="圖層_1" xmlns="http://www.w3.org/2000/svg" xmlns:xlink="http://www.w3.org/1999/xlink" x="0px" y="0px"
	 viewBox="0 0 19 19" style="enable-background:new 0 0 19 19;" xml:space="preserve">
<style type="text/css">
	.st0{fill:#999999;}
</style>
<g>
	<g>
		<g>
			<g>
				<path class="st0" d="M16.96,2.04h-2.04V0.68c0-0.37-0.3-0.68-0.68-0.68c-0.37,0-0.68,0.3-0.68,0.68v1.36H5.43V0.68
					C5.43,0.3,5.12,0,4.75,0C4.38,0,4.07,0.3,4.07,0.68v1.36H2.04C0.91,2.04,0,2.95,0,4.07v12.89C0,18.09,0.91,19,2.04,19h14.93
					c1.12,0,2.04-0.91,2.04-2.04V4.07C19,2.95,18.09,2.04,16.96,2.04z M17.64,16.96c0,0.37-0.3,0.68-0.68,0.68H2.04
					c-0.37,0-0.68-0.3-0.68-0.68V8.14h16.29V16.96z M17.64,6.79H1.36V4.07c0-0.37,0.3-0.68,0.68-0.68h2.04v1.36
					c0,0.37,0.3,0.68,0.68,0.68c0.37,0,0.68-0.3,0.68-0.68V3.39h8.14v1.36c0,0.37,0.3,0.68,0.68,0.68s0.68-0.3,0.68-0.68V3.39h2.04
					c0.37,0,0.68,0.3,0.68,0.68L17.64,6.79L17.64,6.79z"/>
			</g>
		</g>
	</g>
	<g>
		<g>
			<g>
				<path class="st0" d="M5.43,9.5H4.07c-0.37,0-0.68,0.3-0.68,0.68c0,0.37,0.3,0.68,0.68,0.68h1.36c0.37,0,0.68-0.3,0.68-0.68
					C6.11,9.8,5.8,9.5,5.43,9.5z"/>
			</g>
		</g>
	</g>
	<g>
		<g>
			<g>
				<path class="st0" d="M10.18,9.5H8.82c-0.37,0-0.68,0.3-0.68,0.68c0,0.37,0.3,0.68,0.68,0.68h1.36c0.37,0,0.68-0.3,0.68-0.68
					C10.86,9.8,10.55,9.5,10.18,9.5z"/>
			</g>
		</g>
	</g>
	<g>
		<g>
			<g>
				<path class="st0" d="M14.93,9.5h-1.36c-0.37,0-0.68,0.3-0.68,0.68c0,0.37,0.3,0.68,0.68,0.68h1.36c0.37,0,0.68-0.3,0.68-0.68
					C15.61,9.8,15.3,9.5,14.93,9.5z"/>
			</g>
		</g>
	</g>
	<g>
		<g>
			<g>
				<path class="st0" d="M5.43,12.21H4.07c-0.37,0-0.68,0.3-0.68,0.68c0,0.37,0.3,0.68,0.68,0.68h1.36c0.37,0,0.68-0.3,0.68-0.68
					C6.11,12.52,5.8,12.21,5.43,12.21z"/>
			</g>
		</g>
	</g>
	<g>
		<g>
			<g>
				<path class="st0" d="M10.18,12.21H8.82c-0.37,0-0.68,0.3-0.68,0.68c0,0.37,0.3,0.68,0.68,0.68h1.36c0.37,0,0.68-0.3,0.68-0.68
					C10.86,12.52,10.55,12.21,10.18,12.21z"/>
			</g>
		</g>
	</g>
	<g>
		<g>
			<g>
				<path class="st0" d="M14.93,12.21h-1.36c-0.37,0-0.68,0.3-0.68,0.68c0,0.37,0.3,0.68,0.68,0.68h1.36c0.37,0,0.68-0.3,0.68-0.68
					C15.61,12.52,15.3,12.21,14.93,12.21z"/>
			</g>
		</g>
	</g>
	<g>
		<g>
			<g>
				<path class="st0" d="M5.43,14.93H4.07c-0.37,0-0.68,0.3-0.68,0.68c0,0.37,0.3,0.68,0.68,0.68h1.36c0.37,0,0.68-0.3,0.68-0.68
					C6.11,15.23,5.8,14.93,5.43,14.93z"/>
			</g>
		</g>
	</g>
	<g>
		<g>
			<g>
				<path class="st0" d="M10.18,14.93H8.82c-0.37,0-0.68,0.3-0.68,0.68c0,0.37,0.3,0.68,0.68,0.68h1.36c0.37,0,0.68-0.3,0.68-0.68
					C10.86,15.23,10.55,14.93,10.18,14.93z"/>
			</g>
		</g>
	</g>
	<g>
		<g>
			<g>
				<path class="st0" d="M14.93,14.93h-1.36c-0.37,0-0.68,0.3-0.68,0.68c0,0.37,0.3,0.68,0.68,0.68h1.36c0.37,0,0.68-0.3,0.68-0.68
					C15.61,15.23,15.3,14.93,14.93,14.93z"/>
			</g>
		</g>
	</g>
</g>
</svg>
