<?xml version="1.0" encoding="utf-8"?>
<!-- Generator: Adobe Illustrator 24.1.3, SVG Export Plug-In . SVG Version: 6.00 Build 0)  -->
<svg version="1.1" id="圖層_1" xmlns="http://www.w3.org/2000/svg" xmlns:xlink="http://www.w3.org/1999/xlink" x="0px" y="0px"
	 viewBox="0 0 41.87 41.87" style="enable-background:new 0 0 41.87 41.87;" xml:space="preserve">
<style type="text/css">
	.st0{fill:url(#SVGID_1_);}
	.st1{fill:url(#SVGID_2_);}
	.st2{fill:url(#SVGID_3_);}
	.st3{fill:url(#SVGID_4_);}
	.st4{fill:url(#SVGID_5_);}
	.st5{fill:url(#SVGID_6_);}
	.st6{fill:url(#SVGID_7_);}
	.st7{fill:url(#SVGID_8_);}
</style>
<g>
	<g>
		<linearGradient id="SVGID_1_" gradientUnits="userSpaceOnUse" x1="13.5372" y1="40.3396" x2="13.5372" y2="2.836">
			<stop  offset="0" style="stop-color:#CCA172"/>
			<stop  offset="1" style="stop-color:#F1C999"/>
		</linearGradient>
		<path class="st0" d="M13.54,21.08c5.82,0,10.54-4.72,10.54-10.54C24.07,4.73,19.36,0,13.54,0C7.72,0,3,4.72,3,10.54
			S7.72,21.08,13.54,21.08z M9.86,14.71c0.1-0.35,0.19-0.69,0.3-1.04c0.12-0.4,0.24-0.44,0.6-0.25c0.63,0.32,1.29,0.51,1.99,0.59
			c0.44,0.05,0.89,0.01,1.3-0.17c0.78-0.34,0.9-1.24,0.24-1.78c-0.23-0.18-0.48-0.32-0.74-0.44c-0.68-0.3-1.39-0.52-2.03-0.91
			c-1.04-0.62-1.7-1.48-1.62-2.75c0.09-1.43,0.9-2.33,2.21-2.8c0.54-0.2,0.54-0.19,0.55-0.76c0-0.19,0-0.38,0-0.58
			c0.01-0.43,0.09-0.5,0.51-0.51c0.13,0,0.26,0,0.39,0c0.91,0,0.91,0,0.91,0.91c0,0.64,0,0.65,0.64,0.74
			c0.49,0.08,0.95,0.22,1.4,0.42c0.25,0.11,0.34,0.29,0.27,0.55c-0.11,0.39-0.22,0.78-0.35,1.17c-0.12,0.37-0.24,0.42-0.58,0.25
			c-0.71-0.34-1.45-0.49-2.23-0.44c-0.21,0.01-0.4,0.03-0.59,0.12c-0.67,0.3-0.79,1.04-0.21,1.5c0.29,0.24,0.62,0.4,0.97,0.54
			c0.59,0.24,1.19,0.49,1.77,0.8c1.81,1,2.29,3.27,1.02,4.81c-0.46,0.56-1.06,0.93-1.76,1.13c-0.31,0.09-0.44,0.24-0.43,0.56
			c0.02,0.31,0,0.62,0,0.93c0,0.28-0.14,0.43-0.42,0.44c-0.33,0.01-0.67,0.01-1,0c-0.3-0.01-0.44-0.17-0.44-0.46
			c0-0.23,0-0.45-0.01-0.68c-0.01-0.5-0.02-0.52-0.51-0.6c-0.62-0.1-1.22-0.24-1.79-0.51C9.78,15.28,9.73,15.17,9.86,14.71z"/>
		<linearGradient id="SVGID_2_" gradientUnits="userSpaceOnUse" x1="21.7754" y1="40.3396" x2="21.7754" y2="2.836">
			<stop  offset="0" style="stop-color:#CCA172"/>
			<stop  offset="1" style="stop-color:#F1C999"/>
		</linearGradient>
		<path class="st1" d="M37.17,21.96h-1.23l0,0c-0.81-2.49-2.4-4.69-4.52-6.4c0-0.08-0.02-0.17-0.03-0.24c-0.44-1.56,0.1-2.98,0.74-4
			c0.44-0.72-0.13-1.63-0.97-1.53c-1.88,0.24-3.17,0.92-4.06,1.7c-0.61,0.53-1.05,1.25-1.24,2.04c-1.34,5.56-6.36,9.71-12.33,9.71
			c-2.9,0-5.57-0.98-7.71-2.62c-0.74,1.6-1.14,3.36-1.14,5.2c0,0.99,0.12,1.96,0.35,2.9l0,0c0,0,0,0.02,0.01,0.04
			c0.24,0.97,0.59,1.9,1.05,2.78c0.6,1.3,1.47,2.82,2.68,4.05c1.74,1.79,2.03,4,2.08,4.96v0.41c0,0.02,0,0.03,0,0.05
			c0,0.01,0,0.01,0,0.01l0,0c0.03,0.47,0.43,0.85,0.91,0.85h5.51c0.5,0,0.91-0.4,0.91-0.91V39.6c0.8,0.1,1.62,0.17,2.45,0.17
			c0.65,0,1.29-0.03,1.93-0.1v1.3c0,0.5,0.4,0.91,0.91,0.91h5.53c0.5,0,0.91-0.4,0.91-0.91V39.6c0.01-0.45,0.17-2.26,1.88-3.8
			c0.06-0.05,0.12-0.1,0.18-0.16c0.02-0.02,0.03-0.03,0.05-0.04l0,0c1.9-1.69,3.31-3.8,4.03-6.16h1.16c0.92,0,1.67-0.75,1.67-1.67
			v-4.13C38.85,22.71,38.1,21.96,37.17,21.96z M30.28,22.26c-0.76,0-1.37-0.61-1.37-1.37c0-0.76,0.61-1.37,1.37-1.37
			c0.76,0,1.37,0.61,1.37,1.37C31.64,21.65,31.03,22.26,30.28,22.26z"/>
	</g>
</g>
</svg>
