<?xml version="1.0" encoding="utf-8"?>
<!-- Generator: Adobe Illustrator 24.1.3, SVG Export Plug-In . SVG Version: 6.00 Build 0)  -->
<svg version="1.1" id="圖層_1" xmlns="http://www.w3.org/2000/svg" xmlns:xlink="http://www.w3.org/1999/xlink" x="0px" y="0px"
	 viewBox="0 0 21.31 20" style="enable-background:new 0 0 21.31 20;" xml:space="preserve">
<style type="text/css">
	.st0{fill:url(#SVGID_1_);}
	.st1{fill:url(#SVGID_2_);}
	.st2{fill:url(#SVGID_3_);}
	.st3{fill:url(#SVGID_4_);}
	.st4{fill:url(#SVGID_5_);}
	.st5{fill:url(#SVGID_6_);}
	.st6{fill:url(#SVGID_7_);}
	.st7{fill:url(#SVGID_8_);}
	.st8{fill:#E11515;}
	.st9{fill:url(#SVGID_9_);}
	.st10{fill:url(#SVGID_10_);}
	.st11{fill:url(#SVGID_11_);}
	.st12{fill:url(#SVGID_12_);}
	.st13{fill:#FFFFFF;}
</style>
<g>
	<g>
		<g>
			<path class="st8" d="M15.35,9.16c-0.1-0.21-0.31-0.35-0.54-0.35h-2.38V1.09c0-0.33-0.27-0.59-0.59-0.59H9.47
				c-0.33,0-0.59,0.27-0.59,0.59v7.72H6.5c-0.23,0-0.44,0.14-0.54,0.35C5.86,9.37,5.9,9.62,6.05,9.8l4.16,4.75
				c0.11,0.13,0.28,0.2,0.45,0.2s0.33-0.07,0.45-0.2l4.16-4.75C15.41,9.62,15.45,9.37,15.35,9.16z"/>
		</g>
	</g>
	<g>
		<g>
			<path class="st8" d="M17.19,13.56v3.56H4.12v-3.56H1.75v4.75c0,0.66,0.53,1.19,1.19,1.19h15.44c0.66,0,1.19-0.53,1.19-1.19v-4.75
				H17.19z"/>
		</g>
	</g>
</g>
</svg>
