<?xml version="1.0" encoding="utf-8"?>
<!-- Generator: Adobe Illustrator 24.1.3, SVG Export Plug-In . SVG Version: 6.00 Build 0)  -->
<svg version="1.1" id="圖層_1" xmlns="http://www.w3.org/2000/svg" xmlns:xlink="http://www.w3.org/1999/xlink" x="0px" y="0px"
	 viewBox="0 0 21.31 20" style="enable-background:new 0 0 21.31 20;" xml:space="preserve">
<style type="text/css">
	.st0{fill:url(#SVGID_1_);}
	.st1{fill:url(#SVGID_2_);}
	.st2{fill:url(#SVGID_3_);}
	.st3{fill:url(#SVGID_4_);}
	.st4{fill:url(#SVGID_5_);}
	.st5{fill:url(#SVGID_6_);}
	.st6{fill:url(#SVGID_7_);}
	.st7{fill:url(#SVGID_8_);}
	.st8{fill:#E11515;}
	.st9{fill:url(#SVGID_9_);}
	.st10{fill:url(#SVGID_10_);}
	.st11{fill:url(#SVGID_11_);}
	.st12{fill:url(#SVGID_12_);}
	.st13{fill:#FFFFFF;}
</style>
<g>
	<path class="st8" d="M13.16,10.83c-0.46,0-0.83,0.37-0.83,0.83V15c0,0.46-0.37,0.83-0.83,0.83h-2.5V3.33
		c0-0.71-0.45-1.35-1.13-1.58L7.61,1.67h3.88c0.46,0,0.83,0.37,0.83,0.83V5c0,0.46,0.37,0.83,0.83,0.83c0.46,0,0.83-0.37,0.83-0.83
		V2.5c0-1.38-1.12-2.5-2.5-2.5H2.53C2.5,0,2.47,0.01,2.44,0.02C2.4,0.01,2.36,0,2.32,0C1.4,0,0.66,0.75,0.66,1.67v15
		c0,0.71,0.45,1.35,1.13,1.58l5.01,1.67C6.98,19.97,7.15,20,7.32,20c0.92,0,1.67-0.75,1.67-1.67V17.5h2.5c1.38,0,2.5-1.12,2.5-2.5
		v-3.33C13.99,11.21,13.62,10.83,13.16,10.83z"/>
	<path class="st8" d="M20.41,7.74l-3.33-3.33c-0.24-0.24-0.6-0.31-0.91-0.18C15.86,4.36,15.66,4.66,15.66,5v2.5h-3.33
		c-0.46,0-0.83,0.37-0.83,0.83c0,0.46,0.37,0.83,0.83,0.83h3.33v2.5c0,0.34,0.2,0.64,0.51,0.77c0.31,0.13,0.67,0.06,0.91-0.18
		l3.33-3.33C20.74,8.6,20.74,8.07,20.41,7.74z"/>
</g>
</svg>
