<?xml version="1.0" encoding="utf-8"?>
<!-- Generator: Adobe Illustrator 22.0.1, SVG Export Plug-In . SVG Version: 6.00 Build 0)  -->
<svg version="1.1" id="圖層_1" xmlns="http://www.w3.org/2000/svg" xmlns:xlink="http://www.w3.org/1999/xlink" x="0px" y="0px"
	 viewBox="0 0 22 10.9" style="enable-background:new 0 0 22 10.9;" xml:space="preserve">
<style type="text/css">
	.st0{fill:#CCA172;}
	.st1{fill:#FFFFFF;}
	.st2{fill:#1D2083;}
	.st3{fill:#D7D8D8;}
	.st4{fill:#333333;}
</style>
<path class="st4" d="M11.5,10.9c-3.8,0-6.7-1.4-9.4-3.3C1.5,7.1,0.9,6.6,0.4,6.1c-0.5-0.5-0.5-0.9,0-1.4c3.3-3,7.1-5.1,11.7-4.7
	c3,0.2,5.5,1.5,7.9,3.3c0.6,0.5,1.2,0.9,1.7,1.5c0.5,0.4,0.5,0.9,0,1.3C18.7,8.9,15.3,10.8,11.5,10.9z M2.2,5.4
	c5.9,5,11.8,4.9,17.5,0C13.9,0.5,8.1,0.5,2.2,5.4z"/>
<path class="st4" d="M11,2.1c1.9,0,3.4,1.4,3.4,3.3c0,1.9-1.4,3.4-3.4,3.4c-1.9,0-3.3-1.5-3.3-3.3C7.7,3.6,9.1,2.1,11,2.1z"/>
</svg>
