<?xml version="1.0" encoding="utf-8"?>
<!-- Generator: Adobe Illustrator 24.1.3, SVG Export Plug-In . SVG Version: 6.00 Build 0)  -->
<svg version="1.1" id="圖層_1" xmlns="http://www.w3.org/2000/svg" xmlns:xlink="http://www.w3.org/1999/xlink" x="0px" y="0px"
	 viewBox="0 0 34.86 34.2" style="enable-background:new 0 0 34.86 34.2;" xml:space="preserve">
<style type="text/css">
	.st0{fill:#FFFFFF;}
	.st1{fill:#008061;}
	.st2{fill:#F5821F;}
	.st3{fill:#ED1B2D;}
	.st4{fill:#00A041;}
	.st5{fill:#008CD6;}
	.st6{fill:#FF0000;}
	.st7{fill:#FF0000;stroke:#FFFFFF;stroke-width:3;stroke-miterlimit:23.027;}
	.st8{fill:none;stroke:#FF0000;stroke-width:5.7568;stroke-linecap:round;stroke-miterlimit:23.027;}
</style>
<g>
	<polygon id="path758_1_" class="st4" points="29.55,11.3 5.31,11.3 5.31,3.22 29.55,3.22 29.55,11.3 	"/>
	<polygon id="path760_1_" class="st5" points="29.55,21.18 5.31,21.18 5.31,13.09 29.55,13.09 29.55,21.18 	"/>
	<g>
		<polygon id="path764_1_" class="st5" points="2.85,24.92 2.85,29.48 3.78,29.48 3.78,27.49 5.71,27.49 5.71,26.6 3.78,26.6 
			3.78,25.8 5.74,25.8 5.74,24.92 		"/>
		<path class="st5" d="M8.44,28.83v-1.49c0-0.49-0.25-1.11-1.33-1.11c-0.42,0-0.77,0.09-1,0.19v0.81c0.26-0.17,0.56-0.25,0.88-0.25
			c0.29,0,0.58,0.1,0.58,0.44v0.02c-0.14-0.05-0.32-0.08-0.51-0.08c-0.73,0-1.27,0.38-1.27,1.13c0,0.74,0.6,1.02,1.09,1.02
			c0.3,0,0.56-0.1,0.73-0.23c0.02,0.09,0.04,0.17,0.07,0.21h0.95C8.53,29.39,8.44,29.2,8.44,28.83 M6.67,28.39
			c0-0.25,0.22-0.42,0.53-0.42c0.16,0,0.28,0.04,0.38,0.09v0.54c-0.09,0.08-0.24,0.17-0.46,0.17C6.83,28.77,6.67,28.61,6.67,28.39"
			/>
		<path class="st5" d="M27.3,28.83v-1.49c0-0.49-0.25-1.11-1.33-1.11c-0.42,0-0.77,0.09-1,0.19v0.81c0.27-0.17,0.56-0.25,0.88-0.25
			c0.29,0,0.58,0.1,0.58,0.44v0.02c-0.14-0.05-0.32-0.08-0.51-0.08c-0.73,0-1.27,0.38-1.27,1.13c0,0.74,0.6,1.02,1.09,1.02
			c0.3,0,0.56-0.1,0.73-0.23c0.02,0.09,0.04,0.17,0.07,0.21h0.96C27.38,29.39,27.3,29.2,27.3,28.83 M25.52,28.39
			c0-0.25,0.22-0.42,0.53-0.42c0.16,0,0.28,0.04,0.38,0.09v0.54c-0.09,0.08-0.24,0.17-0.46,0.17
			C25.68,28.77,25.52,28.61,25.52,28.39"/>
		<path id="path784_1_" class="st5" d="M12.3,26.26c-0.38,0-0.65,0.09-0.91,0.37c-0.18-0.23-0.47-0.37-0.82-0.37
			c-0.29,0-0.55,0.08-0.79,0.29v-0.26H8.96v3.19h0.87v-2.15c0.11-0.13,0.25-0.24,0.46-0.24c0.26,0,0.41,0.18,0.41,0.5v1.88h0.89
			v-2.17c0.1-0.13,0.25-0.22,0.45-0.22c0.28,0,0.41,0.2,0.41,0.5v1.88h0.89v-2.21C13.35,26.68,12.97,26.26,12.3,26.26"/>
		<rect id="path786_1_" x="15.4" y="24.92" class="st5" width="0.87" height="4.57"/>
		<polygon id="path790_1_" class="st5" points="22.16,26.33 21,24.92 20.05,24.92 20.05,29.48 21,29.48 21,26.33 22.16,27.86 
			23.31,26.33 23.31,29.48 24.27,29.48 24.27,24.92 23.31,24.92 		"/>
		<rect id="path792_1_" x="13.93" y="26.29" class="st5" width="0.87" height="3.19"/>
		<path id="path804_1_" class="st5" d="M14.36,24.85c-0.31,0-0.57,0.25-0.57,0.57c0,0.31,0.25,0.57,0.57,0.57
			c0.31,0,0.57-0.25,0.57-0.57C14.93,25.1,14.68,24.85,14.36,24.85"/>
		<path id="path808_1_" class="st5" d="M28.62,26.63v-0.33h-0.83v3.19h0.87v-2c0.13-0.16,0.33-0.31,0.63-0.31
			c0.23,0,0.4,0.09,0.49,0.16v-0.96c-0.11-0.08-0.28-0.12-0.42-0.12C29.1,26.26,28.83,26.35,28.62,26.63"/>
		<path id="path812_1_" class="st5" d="M31.64,28.67c-0.28,0-0.38-0.21-0.38-0.45v-1.09H32v-0.83h-0.74v-1.2l-0.86,0.37v0.84h-0.47
			v0.83h0.47v1.22c0,0.66,0.26,1.17,1.04,1.17c0.23,0,0.44-0.04,0.57-0.09v-0.88C31.95,28.62,31.83,28.67,31.64,28.67"/>
		<polygon id="path816_1_" class="st5" points="17.32,30.31 18.3,30.31 19.78,26.29 18.82,26.29 18.21,28.02 17.56,26.29 
			16.56,26.29 17.76,29.19 		"/>
	</g>
</g>
</svg>
