<?xml version="1.0" encoding="utf-8"?>
<!-- Generator: Adobe Illustrator 24.1.3, SVG Export Plug-In . SVG Version: 6.00 Build 0)  -->
<svg version="1.1" id="圖層_1" xmlns="http://www.w3.org/2000/svg" xmlns:xlink="http://www.w3.org/1999/xlink" x="0px" y="0px"
	 viewBox="0 0 34.86 34.2" style="enable-background:new 0 0 34.86 34.2;" xml:space="preserve">
<style type="text/css">
	.st0{fill:#FFFFFF;}
	.st1{fill:#008061;}
	.st2{fill:#F5821F;}
	.st3{fill:#ED1B2D;}
	.st4{fill:#00A041;}
	.st5{fill:#008CD6;}
	.st6{fill:#FF0000;}
	.st7{fill:#FF0000;stroke:#FFFFFF;stroke-width:3;stroke-miterlimit:23.027;}
	.st8{fill:none;stroke:#FF0000;stroke-width:5.7568;stroke-linecap:round;stroke-miterlimit:23.027;}
</style>
<g id="g3167_1_" transform="matrix(1.0011778,0,0,1.0011778,-3.6264604e-2,-5.076318e-2)">
	<path id="path8_1_" class="st7" d="M30.6,8.72c-0.47-1.65-1.47-2.91-3.01-3.78c-1.03-0.56-2-0.9-2.91-1.04l-2.47,0.07
		c-0.76,0.18-1.44,0.42-2.04,0.74l-1.5,1.04l-0.97,0.9l-0.33,0.4l-0.33-0.4l-0.97-0.9l-1.5-1.04c-0.6-0.31-1.28-0.56-2.04-0.74
		L10,3.9C9.11,4.04,8.15,4.38,7.12,4.94C5.59,5.81,4.58,7.07,4.11,8.72S3.79,12.3,4.55,14.5c0.74,2.21,2.15,4.58,4.25,7.12
		c2.12,2.54,4.97,5.14,8.56,7.79c3.59-2.65,6.44-5.25,8.56-7.79c2.1-2.54,3.52-4.92,4.28-7.12C30.93,12.3,31.07,10.37,30.6,8.72"/>
	<path id="path10_2_" class="st8" d="M29.53,5.14c-0.96-0.91-2.15-1.55-3.58-1.91l-0.2-0.07l-2.44-0.23
		c-0.87,0.04-1.81,0.28-2.81,0.7c-0.98,0.45-2.02,1.13-3.11,2.04l-0.37-0.37l-1.1-0.87c-0.49-0.33-1.07-0.64-1.74-0.9
		c-0.69-0.29-1.45-0.48-2.27-0.57L9.2,3.17C8.24,3.37,7.22,3.81,6.15,4.5C4.88,5.35,3.98,6.44,3.45,7.78
		c-0.53,1.36-0.67,2.91-0.4,4.65c0.29,1.74,0.99,3.6,2.11,5.58c1.14,2.01,2.71,4.08,4.71,6.22c2.05,2.12,4.56,4.26,7.52,6.42
		l0.97-0.7l2.41-1.91l3.21-2.94l3.34-3.68c1.09-1.34,2.03-2.74,2.81-4.21l0.1-0.2l1.04-2.54c0.33-0.91,0.56-1.86,0.67-2.84
		c0.11-0.98,0.02-1.95-0.27-2.91l-0.1-0.33C31.19,7.14,30.51,6.05,29.53,5.14"/>
	<path id="path12_1_" class="st0" d="M13.01,12.83c-0.2,0-0.37,0.07-0.5,0.2c-0.13,0.13-0.2,0.31-0.2,0.53v3.71
		c0,0.2,0.07,0.37,0.2,0.5l0.5,0.23l0.5-0.23l0.2-0.5v-3.71l-0.2-0.53C13.38,12.9,13.21,12.83,13.01,12.83 M10.77,11.49
		c-0.2,0-0.37,0.07-0.5,0.2c-0.13,0.13-0.2,0.31-0.2,0.54v1.87h-1.1v-1.87l-0.2-0.54c-0.13-0.13-0.3-0.2-0.5-0.2s-0.37,0.07-0.5,0.2
		c-0.13,0.13-0.2,0.31-0.2,0.54v5.05c0,0.2,0.07,0.37,0.2,0.5l0.5,0.23l0.5-0.23l0.2-0.5v-1.81h1.1v1.81c0,0.2,0.07,0.37,0.2,0.5
		c0.13,0.13,0.3,0.21,0.5,0.23l0.5-0.23l0.2-0.5v-5.05l-0.2-0.54C11.14,11.56,10.97,11.49,10.77,11.49 M16.35,12.23v5.05
		c0,0.2,0.07,0.37,0.2,0.5l0.5,0.23h0.03h0.03h1.44c0.2-0.02,0.36-0.09,0.47-0.2l0.2-0.47l-0.2-0.5c-0.11-0.11-0.27-0.18-0.47-0.2
		h-0.8v-4.41l-0.2-0.54l-0.5-0.2c-0.2,0-0.37,0.07-0.5,0.2C16.42,11.83,16.35,12.01,16.35,12.23 M16.05,16.44l-0.2-0.47
		c-0.13-0.13-0.29-0.2-0.47-0.2h-0.7c-0.18,0-0.32,0.07-0.43,0.2c-0.13,0.13-0.2,0.29-0.2,0.47c0,0.2,0.07,0.37,0.2,0.5
		c0.11,0.11,0.26,0.18,0.43,0.2h0.7l0.47-0.2L16.05,16.44 M25.85,12.73c-0.54,0.02-0.96,0.16-1.27,0.4
		c-0.31,0.25-0.55,0.52-0.7,0.84c-0.16,0.29-0.25,0.52-0.27,0.7h-0.54v-2.64h0.77c0.18-0.02,0.32-0.09,0.43-0.2l0.2-0.5l-0.2-0.47
		c-0.11-0.13-0.26-0.2-0.43-0.2h-1.47c-0.2,0-0.37,0.07-0.5,0.2c-0.11,0.13-0.17,0.31-0.17,0.54v3.28h-0.77V13.6l-0.2-0.53
		c-0.13-0.13-0.3-0.21-0.5-0.23c-0.2,0.02-0.37,0.1-0.5,0.23c-0.13,0.13-0.2,0.31-0.2,0.53v3.71c0,0.2,0.07,0.37,0.2,0.5
		c0.13,0.13,0.3,0.2,0.5,0.2l0.5-0.2l0.2-0.5v-1.3h0.77v4.72c0,0.2,0.06,0.37,0.17,0.5l0.5,0.23l0.5-0.23l0.2-0.5v-4.72h0.54
		c0.11,0.36,0.26,0.67,0.43,0.94l0.57,0.57l0.33,0.23l0.5,0.13h0.23h0.94h0.1l0.33-0.17l0.23-0.53c-0.02-0.22-0.09-0.38-0.2-0.47
		l-0.33-0.2h-0.1h-0.9l-0.13-0.03l-0.23-0.13l-0.17-0.2l-0.03-0.1h0.43h0.9h0.87c0.22-0.02,0.38-0.13,0.47-0.33l0.13-0.64v-0.3
		l-0.07-0.37l-0.3-0.7l-0.64-0.67C26.7,12.85,26.32,12.75,25.85,12.73 M26.49,14.1l0.23,0.54v0.03h-1.67v-0.03
		c0-0.2,0.09-0.38,0.27-0.54c0.16-0.13,0.35-0.21,0.57-0.23C26.13,13.89,26.33,13.97,26.49,14.1 M19.56,10.89
		c-0.16,0.18-0.25,0.39-0.27,0.64c0.02,0.27,0.11,0.49,0.27,0.67c0.18,0.16,0.39,0.23,0.64,0.23c0.25,0,0.46-0.08,0.64-0.23
		c0.16-0.18,0.23-0.4,0.23-0.67c0-0.25-0.08-0.46-0.23-0.64c-0.18-0.18-0.39-0.27-0.64-0.27C19.95,10.62,19.74,10.71,19.56,10.89
		 M11.47,10.09c0.09,0.38,0.27,0.76,0.54,1.14c0.29,0.38,0.62,0.66,1,0.84l1-0.84c0.29-0.38,0.47-0.76,0.54-1.14
		c0.07-0.38-0.03-0.68-0.3-0.9c-0.27-0.18-0.49-0.25-0.67-0.2c-0.18,0.02-0.31,0.08-0.4,0.17l-0.17,0.2l-0.17-0.2
		c-0.09-0.09-0.22-0.14-0.4-0.17c-0.18-0.04-0.4,0.02-0.67,0.2C11.51,9.39,11.4,9.69,11.47,10.09"/>
</g>
</svg>
