<svg id="圖層_1" data-name="圖層 1" xmlns="http://www.w3.org/2000/svg" viewBox="0 0 14.28 16.25"><defs><style>.cls-1{fill:#595757;}</style></defs><title>未命名-1</title><path class="cls-1" d="M7.08,11.59H4.57c-.05,0-.06,0-.06-.07v-1.1s0,0,0-.08A4,4,0,0,1,4,10a2.52,2.52,0,0,1-.3-.27A4,4,0,0,1,3.09,9a3.87,3.87,0,0,1-.45-1,4.88,4.88,0,0,1-.12-.55c0-.2,0-.41,0-.61a3.25,3.25,0,0,1,0-.54,4,4,0,0,1,.31-1.18,4.9,4.9,0,0,1,.39-.71,4.43,4.43,0,0,1,.43-.54,4.88,4.88,0,0,1,.53-.48,5.15,5.15,0,0,1,.93-.57,4.86,4.86,0,0,1,1.12-.35,5,5,0,0,1,.54-.06c.2,0,.4,0,.6,0a2.09,2.09,0,0,1,.35,0,3.75,3.75,0,0,1,.6.11,5.81,5.81,0,0,1,.63.21,4.51,4.51,0,0,1,.81.44c.13.08.25.18.37.27a2.09,2.09,0,0,1,.22.2,3.7,3.7,0,0,1,.28.28c.09.11.18.21.26.32a4.2,4.2,0,0,1,.54,1,4.44,4.44,0,0,1,.21.71c0,.12,0,.24.05.35a3,3,0,0,1,0,.42,4.3,4.3,0,0,1-.08.88,3.89,3.89,0,0,1-.3,1,3.51,3.51,0,0,1-.55.88c-.11.12-.22.24-.34.35a3.75,3.75,0,0,1-.71.53.1.1,0,0,0-.05.09v1.11s0,.06-.05.06ZM5.74,10.17v.57a.37.37,0,0,0,.12.27.61.61,0,0,0,.29.14,4,4,0,0,0,1,.12,3.15,3.15,0,0,0,.53,0,3,3,0,0,0,.43-.1.44.44,0,0,0,.34-.41V9.6s0-.06.05-.07l.28-.14a2.86,2.86,0,0,0,.79-.59A2.33,2.33,0,0,0,10,8.19,3.09,3.09,0,0,0,10.26,7a2.81,2.81,0,0,0,0-.65A3,3,0,0,0,10,5.54a3.38,3.38,0,0,0-.57-.79L9,4.43A3,3,0,0,0,8.26,4a3.51,3.51,0,0,0-1-.22,3.48,3.48,0,0,0-.72,0,3.25,3.25,0,0,0-1,.32,4.18,4.18,0,0,0-.65.45,3.31,3.31,0,0,0-.65.8,3.05,3.05,0,0,0-.36,1.24,3.21,3.21,0,0,0,0,.82,2.85,2.85,0,0,0,.37.95,2.63,2.63,0,0,0,1,.9l.37.19a.1.1,0,0,1,.07.1Z"/><path class="cls-1" d="M7,12.68H4.34a.49.49,0,0,1-.51-.46.48.48,0,0,1,.48-.47H9.64a.51.51,0,0,1,.51.3.47.47,0,0,1-.47.63Z"/><path class="cls-1" d="M7,13H9.68a.48.48,0,0,1,.5.47.48.48,0,0,1-.5.46H4.33a.47.47,0,1,1,0-.93Z"/><path class="cls-1" d="M7,15.06H5.47A.28.28,0,0,1,5.25,15a.71.71,0,0,1,0-.72.28.28,0,0,1,.23-.11H8.54a.25.25,0,0,1,.21.11.63.63,0,0,1,0,.72.24.24,0,0,1-.21.11Z"/><path class="cls-1" d="M11.67,3.79a.43.43,0,0,1-.41-.26.36.36,0,0,1,.1-.45l.73-.66a.44.44,0,0,1,.63,0l.12.13a.39.39,0,0,1-.09.58c-.28.18-.56.36-.83.55A.45.45,0,0,1,11.67,3.79Z"/><path class="cls-1" d="M2.49,3.9a.36.36,0,0,1-.22-.07l-.86-.54a.37.37,0,0,1-.1-.56,1,1,0,0,1,.16-.19.44.44,0,0,1,.58,0c.26.22.51.43.75.65a.36.36,0,0,1,.11.44A.45.45,0,0,1,2.49,3.9Z"/><path class="cls-1" d="M7.56.47c0,.29,0,.61-.07.94a.4.4,0,0,1-.39.35.46.46,0,0,1-.41-.18.54.54,0,0,1-.08-.28c0-.27-.05-.54-.08-.81A.45.45,0,0,1,6.72.06a.94.94,0,0,1,.64,0A.46.46,0,0,1,7.56.47Z"/><path class="cls-1" d="M1.86,8.16a.39.39,0,0,1-.3.39l-1,.29a.41.41,0,0,1-.54-.27,1.05,1.05,0,0,1,0-.19A.4.4,0,0,1,.39,7.9l1-.15A.44.44,0,0,1,1.84,8,.32.32,0,0,1,1.86,8.16Z"/><path class="cls-1" d="M12.42,8.08a.41.41,0,0,1,.34-.43.57.57,0,0,1,.26,0l.83.11a.46.46,0,0,1,.32.13.36.36,0,0,1,.1.34,1.16,1.16,0,0,1,0,.18.42.42,0,0,1-.54.3l-1-.28A.39.39,0,0,1,12.42,8.08Z"/><path class="cls-1" d="M7,15.32h.53a.09.09,0,0,1,.09.06,1.28,1.28,0,0,1,0,.27,1.55,1.55,0,0,1,0,.48s0,0,0,.05a.08.08,0,0,1-.1.07h-1a.09.09,0,0,1-.1-.06,1.6,1.6,0,0,1,0-.29,1.83,1.83,0,0,1,0-.47.14.14,0,0,1,0-.06s0,0,.08,0Z"/></svg>