<?xml version="1.0" encoding="utf-8"?>
<!-- Generator: Adobe Illustrator 24.1.3, SVG Export Plug-In . SVG Version: 6.00 Build 0)  -->
<svg version="1.1" id="圖層_1" xmlns="http://www.w3.org/2000/svg" xmlns:xlink="http://www.w3.org/1999/xlink" x="0px" y="0px"
	 viewBox="0 0 46.26 43.76" style="enable-background:new 0 0 46.26 43.76;" xml:space="preserve">
<style type="text/css">
	.st0{fill:#00C3FF;}
	.st1{fill:#00C114;}
	.st2{fill:#00C014;}
</style>
<path class="st1" d="M23.12,0C10.35,0,0,8.23,0,18.39c0,9.34,8.75,17.05,20.08,18.23c0.69,0.07,1.19,0.7,1.12,1.39l-0.48,4.34
	c-0.11,0.99,0.91,1.7,1.8,1.27c9.57-4.62,15.3-9.37,18.72-13.49c0.62-0.75,2.65-3.59,3.06-4.34c0.88-1.58,1.48-3.29,1.77-5.07
	c0.11-0.56,0.16-1.03,0.18-1.4c0.04-0.61-0.01-1.51-0.02-1.8C45.66,7.78,35.53,0,23.12,0z M13.96,24.48H9.23
	c-0.65,0-1.18-0.53-1.18-1.18v-8.93c0-0.65,0.53-1.18,1.18-1.18c0.65,0,1.18,0.53,1.18,1.18v7.75h3.55c0.65,0,1.18,0.53,1.18,1.18
	C15.14,23.95,14.61,24.48,13.96,24.48z M18.63,23.56c0,0.51-0.41,0.92-0.92,0.92h-0.52c-0.51,0-0.92-0.41-0.92-0.92v-9.45
	c0-0.51,0.41-0.92,0.92-0.92h0.52c0.51,0,0.92,0.41,0.92,0.92V23.56z M29.63,23.25c0,0.66-0.54,1.24-1.19,1.23
	c-0.31,0-0.59-0.13-0.8-0.32c-0.07-0.07-4.87-6.28-4.87-6.28v5.42c0,0.65-0.53,1.18-1.18,1.18s-1.18-0.53-1.18-1.18v-8.88
	c0-0.64,0.49-1.21,1.14-1.23c0.37-0.01,0.7,0.14,0.93,0.4c0.07,0.08,4.8,6.24,4.8,6.24v-5.46c0-0.65,0.53-1.18,1.18-1.18
	s1.18,0.53,1.18,1.18V23.25z M37.31,17.65c0.65,0,1.18,0.53,1.18,1.18c0,0.65-0.53,1.18-1.18,1.18h-3.55v2.1h3.55
	c0.65,0,1.18,0.53,1.18,1.18c0,0.65-0.53,1.18-1.18,1.18h-4.73c-0.65,0-1.18-0.53-1.18-1.18v-8.93c0-0.65,0.53-1.18,1.18-1.18h4.73
	c0.65,0,1.18,0.53,1.18,1.18c0,0.65-0.53,1.18-1.18,1.18h-3.55v2.1H37.31z"/>
</svg>
