<svg xmlns="http://www.w3.org/2000/svg" viewBox="0 0 118.34 52.56"><defs><style>.cls-1{fill:#fff;}</style></defs><title>home</title><g id="line"><polygon class="cls-1" points="65.87 -0.04 67.51 7.04 67.51 20.22 66.56 20.22 61.96 27.13 67.51 27.13 67.51 52.89 76.38 52.89 76.38 27.13 81.41 20.22 76.7 20.22 76.7 -0.04 65.87 -0.04"/><path class="cls-1" d="M114.57,8.57l4.26-5.08h-5.66L110.54.29H103.9l2.87,3h-5.25V.29h-6.4V3.16h-7.8L81.41,8.82H95.12v1.56H81.9V39.76l7.72-6.57V30.32h4.59v6.32l6.49-6.48h2.21l3.37-4.76h-4.85V23.21h2l3.29-4.87H101.6V16h5.09v15.1h-3.2l3.77,5.25,6.81-5.33V10.79H101.68V8.57ZM94.38,25.4H89.45V23.21h4.93Zm0-7.14H89.45V16.12h4.93Z"/><polygon class="cls-1" points="86.99 38.45 81.41 44.11 106.52 44.11 106.52 47.06 100.61 47.06 106.93 52.45 113.83 47.56 113.83 43.53 118.83 38.45 114.24 38.45 114.24 37.05 106.77 37.05 106.77 38.45 86.99 38.45"/><polygon class="cls-1" points="86.5 45.67 91.26 50.59 100.86 50.59 95.94 45.67 86.5 45.67"/><circle cx="6.45" cy="5.53" r="5.53"/><polygon points="0 14.29 1.84 21.21 1.84 52.56 10.14 48.87 13.83 52.56 58.09 52.56 49.8 45.19 17.98 45.19 11.53 40.11 11.53 14.29 0 14.29"/><path d="M55.79,1.38H21.67L15.22,6.92h24L35.5,11.53H14.29V44.72l9.22-8.3h5.54v8.76l8.53-8.53h2.53l4.61-5.76H38.27V27.2h1.84l4.61-5.53H38.27V18.9h6.45V38.27H41l3.68,6.45L53,38.27V11.53H46.57ZM29.05,30.89H23.51V27.2h5.54Zm0-9.22H23.51V18.9h5.54Z"/></g></svg>