<?xml version="1.0" encoding="utf-8"?>
<!-- Generator: Adobe Illustrator 24.1.3, SVG Export Plug-In . SVG Version: 6.00 Build 0)  -->
<svg version="1.1" id="圖層_1" xmlns="http://www.w3.org/2000/svg" xmlns:xlink="http://www.w3.org/1999/xlink" x="0px" y="0px"
	 viewBox="0 0 37.96 34" style="enable-background:new 0 0 37.96 34;" xml:space="preserve">
<style type="text/css">
	.st0{fill:url(#SVGID_1_);}
	.st1{fill:url(#SVGID_2_);}
	.st2{fill:url(#SVGID_3_);}
	.st3{fill:url(#SVGID_4_);}
	.st4{fill:url(#SVGID_5_);}
	.st5{fill:url(#SVGID_6_);}
	.st6{fill:url(#SVGID_7_);}
	.st7{fill:url(#SVGID_8_);}
	.st8{fill:#E11515;}
	.st9{fill:url(#SVGID_9_);}
	.st10{fill:url(#SVGID_10_);}
	.st11{fill:url(#SVGID_11_);}
	.st12{fill:url(#SVGID_12_);}
	.st13{fill:#FFFFFF;}
</style>
<g>
	<linearGradient id="SVGID_1_" gradientUnits="userSpaceOnUse" x1="10.3159" y1="5.3479" x2="10.3159" y2="27.4584">
		<stop  offset="0" style="stop-color:#EF0C29"/>
		<stop  offset="0.5185" style="stop-color:#E73832"/>
		<stop  offset="1" style="stop-color:#950000"/>
	</linearGradient>
	<path class="st0" d="M15.62,17.22L5.25,7.5C5.1,7.88,5.01,8.28,5.01,8.71v16.58c0,0.71,0.24,1.36,0.63,1.9L15.62,17.22z"/>
	<linearGradient id="SVGID_2_" gradientUnits="userSpaceOnUse" x1="27.8274" y1="5.3479" x2="27.8274" y2="27.4584">
		<stop  offset="0" style="stop-color:#EF0C29"/>
		<stop  offset="0.5185" style="stop-color:#E73832"/>
		<stop  offset="1" style="stop-color:#950000"/>
	</linearGradient>
	<path class="st1" d="M32.55,7.21l-9.84,9.84l10.02,9.37c0.13-0.35,0.21-0.73,0.21-1.12V8.71C32.94,8.16,32.79,7.66,32.55,7.21z"/>
	<linearGradient id="SVGID_3_" gradientUnits="userSpaceOnUse" x1="18.8385" y1="5.3479" x2="18.8385" y2="27.4584">
		<stop  offset="0" style="stop-color:#EF0C29"/>
		<stop  offset="0.5185" style="stop-color:#E73832"/>
		<stop  offset="1" style="stop-color:#950000"/>
	</linearGradient>
	<path class="st2" d="M19.15,18.11L31.32,5.94c-0.47-0.27-1.01-0.44-1.59-0.44H8.22c-0.7,0-1.34,0.23-1.87,0.61L19.15,18.11z"/>
	<linearGradient id="SVGID_4_" gradientUnits="userSpaceOnUse" x1="19.3626" y1="5.3479" x2="19.3626" y2="27.4584">
		<stop  offset="0" style="stop-color:#EF0C29"/>
		<stop  offset="0.5185" style="stop-color:#E73832"/>
		<stop  offset="1" style="stop-color:#950000"/>
	</linearGradient>
	<path class="st3" d="M21.46,18.3l-2.27,2.27l-2.28-2.14l-9.85,9.85c0.36,0.14,0.75,0.22,1.16,0.22h21.51
		c0.73,0,1.39-0.25,1.93-0.66L21.46,18.3z"/>
</g>
</svg>
