<?xml version="1.0" encoding="utf-8"?>
<!-- Generator: Adobe Illustrator 24.1.3, SVG Export Plug-In . SVG Version: 6.00 Build 0)  -->
<svg version="1.1" id="圖層_1" xmlns="http://www.w3.org/2000/svg" xmlns:xlink="http://www.w3.org/1999/xlink" x="0px" y="0px"
	 viewBox="0 0 21.31 20" style="enable-background:new 0 0 21.31 20;" xml:space="preserve">
<style type="text/css">
	.st0{fill:url(#SVGID_1_);}
	.st1{fill:url(#SVGID_2_);}
	.st2{fill:url(#SVGID_3_);}
	.st3{fill:url(#SVGID_4_);}
	.st4{fill:url(#SVGID_5_);}
	.st5{fill:url(#SVGID_6_);}
	.st6{fill:url(#SVGID_7_);}
	.st7{fill:url(#SVGID_8_);}
	.st8{fill:#E11515;}
	.st9{fill:url(#SVGID_9_);}
	.st10{fill:url(#SVGID_10_);}
	.st11{fill:url(#SVGID_11_);}
	.st12{fill:url(#SVGID_12_);}
	.st13{fill:#FFFFFF;}
</style>
<g>
	<g>
		<path class="st8" d="M10.6,1.21c-4.8,0-8.67,3.98-8.67,8.79c0,4.8,3.87,8.79,8.67,8.79c4.8,0,8.79-3.98,8.79-8.79
			C19.38,5.2,15.52,1.21,10.6,1.21z M12.47,14.8c-0.47,0.23-0.82,0.35-1.05,0.35c-0.23,0.12-0.59,0.12-0.94,0.12
			c-0.59,0-0.94-0.12-1.29-0.35c-0.35-0.23-0.47-0.59-0.47-1.05c0-0.12,0-0.35,0-0.47c0.12-0.12,0.12-0.23,0.12-0.47l0.59-1.99
			c0-0.23,0.12-0.35,0.12-0.59c0-0.12,0-0.35,0-0.47c0-0.23,0-0.47-0.12-0.59c-0.12,0-0.23-0.12-0.59-0.12c-0.12,0-0.35,0-0.47,0.12
			c-0.12,0-0.23,0.12-0.35,0.12l0.12-0.59c0.35-0.23,0.7-0.35,1.05-0.47c0.35-0.12,0.7-0.12,0.94-0.12c0.59,0,1.05,0.12,1.29,0.35
			c0.35,0.23,0.47,0.59,0.47,1.05c0,0.12,0,0.23,0,0.47c0,0.23,0,0.47-0.12,0.59l-0.59,1.99c0,0.12-0.12,0.35-0.12,0.59
			c0,0.23,0,0.35,0,0.47c0,0.23,0.12,0.47,0.23,0.59c0.12,0.12,0.35,0.12,0.59,0.12c0.12,0,0.23,0,0.47-0.12
			c0.12,0,0.35-0.12,0.35-0.12L12.47,14.8z M12.35,6.72c-0.23,0.23-0.59,0.35-0.94,0.35c-0.35,0-0.7-0.12-0.94-0.35
			c-0.23-0.23-0.35-0.47-0.35-0.82c0-0.35,0.12-0.59,0.35-0.94c0.23-0.23,0.59-0.35,0.94-0.35c0.35,0,0.7,0.12,0.94,0.35
			c0.35,0.23,0.47,0.59,0.47,0.94C12.82,6.25,12.71,6.49,12.35,6.72z"/>
	</g>
</g>
</svg>
