<?xml version="1.0" encoding="utf-8"?>
<!-- Generator: Adobe Illustrator 24.1.3, SVG Export Plug-In . SVG Version: 6.00 Build 0)  -->
<svg version="1.1" id="圖層_1" xmlns="http://www.w3.org/2000/svg" xmlns:xlink="http://www.w3.org/1999/xlink" x="0px" y="0px"
	 viewBox="0 0 34.86 34.2" style="enable-background:new 0 0 34.86 34.2;" xml:space="preserve">
<style type="text/css">
	.st0{fill:#FFFFFF;}
	.st1{fill:#008061;}
	.st2{fill:#F5821F;}
	.st3{fill:#ED1B2D;}
	.st4{fill:#00A041;}
	.st5{fill:#008CD6;}
	.st6{fill:#FF0000;}
	.st7{fill:#FF0000;stroke:#FFFFFF;stroke-width:3;stroke-miterlimit:23.027;}
	.st8{fill:none;stroke:#FF0000;stroke-width:5.7568;stroke-linecap:round;stroke-miterlimit:23.027;}
</style>
<g>
	<g id="g4_1_" transform="translate(-0.899414,64.72458)">
		<path id="path6_1_" class="st6" d="M14.98-54.39c-1.75-1.13-3.64-1.45-5.67-0.96c-2.03,0.49-3.59,1.6-4.67,3.34
			c-1.11,1.77-1.43,3.66-0.96,5.67c0.49,2.03,1.6,3.6,3.34,4.71c1.77,1.08,3.67,1.39,5.7,0.93c2.01-0.44,3.57-1.56,4.67-3.35
			c1.11-1.75,1.41-3.63,0.93-5.66C17.88-51.73,16.77-53.28,14.98-54.39z M10.21-51.54c0.95-0.24,1.86-0.1,2.72,0.43
			c0.84,0.53,1.38,1.28,1.62,2.25c0.2,0.97,0.05,1.89-0.47,2.75c-0.5,0.84-1.26,1.39-2.25,1.63c-0.97,0.2-1.89,0.04-2.75-0.47
			c-0.86-0.58-1.4-1.33-1.59-2.26c-0.24-0.97-0.09-1.89,0.47-2.75C8.47-50.81,9.21-51.34,10.21-51.54z"/>
	</g>
	<g id="g8_1_" transform="translate(128.89807,31.68748)">
		<path id="path10_3_" class="st6" d="M-108.49-24.47c-0.58-0.29-1.14-0.35-1.69-0.2c-0.62,0.13-1.08,0.48-1.39,1.03
			c-0.35,0.53-0.44,1.13-0.26,1.79l2.32,10.08c0.17,0.72,0.55,1.26,1.13,1.59c0.55,0.29,1.11,0.36,1.69,0.23
			c0.66-0.17,1.14-0.53,1.43-1.06c0.31-0.53,0.4-1.12,0.26-1.79l-0.7-2.96l0.58-0.69l4.62,4.02c0.62,0.56,1.31,0.74,2.06,0.57
			c0.53-0.13,0.98-0.45,1.36-0.96c0.44-0.6,0.56-1.23,0.36-1.89c-0.09-0.49-0.34-0.91-0.76-1.29l-4.64-4.01l1.99-2.38
			c0.53-0.6,0.71-1.3,0.53-2.09c-0.13-0.64-0.5-1.16-1.09-1.56c-0.58-0.35-1.15-0.45-1.72-0.3c-0.44,0.09-0.84,0.34-1.2,0.76
			l-3.42,4.07l-0.33-1.36C-107.51-23.59-107.89-24.11-108.49-24.47z"/>
	</g>
	<g id="g12_1_">
		<path id="path14_2_" class="st6" d="M32.44,4.6c-0.02-0.77-0.33-1.46-0.93-2.05c-0.62-0.62-1.35-0.93-2.19-0.93H5.53
			c-0.86,0-1.59,0.29-2.19,0.86C2.73,3.08,2.42,3.79,2.42,4.6v4.78c0,0.33,0.18,0.49,0.53,0.49c0.33,0,0.8-0.22,1.42-0.66
			c2.81-2.03,6.35-3.55,10.61-4.54c6.01-1.41,11.25-1.32,15.71,0.26l0.93,0.43c0.2,0.09,0.36,0.1,0.5,0.03
			C32.35,5.31,32.47,5.04,32.44,4.6z"/>
	</g>
	<g id="g16_1_" transform="translate(0,167.03368)">
		<path id="path18_2_" class="st6" d="M2.95-142.49c-0.35,0-0.53,0.18-0.53,0.53v3.84c0,0.81,0.31,1.51,0.93,2.09
			c0.6,0.59,1.33,0.89,2.19,0.89h23.8c0.86,0,1.6-0.3,2.22-0.89c0.6-0.58,0.9-1.27,0.9-2.09v-8.02c0-0.35-0.18-0.53-0.53-0.53
			l-0.49,0.26l-0.53,0.36c-3.02,2.08-6.54,3.59-10.54,4.51c-3.16,0.75-6.21,1.07-9.15,0.96c-2.81-0.11-5.17-0.6-7.09-1.46
			C3.38-142.33,2.99-142.49,2.95-142.49z"/>
	</g>
</g>
</svg>
