<svg id="圖層_1" data-name="圖層 1" xmlns="http://www.w3.org/2000/svg" viewBox="0 0 9.99 8.98"><defs><style>.cls-1{fill:#595757;}</style></defs><title>未命名-1</title><path class="cls-1" d="M5,0C2.24,0,0,1.9,0,4.25a3.94,3.94,0,0,0,1.45,3c-.1.64-.4,1.52-1.22,1.69,0,0,2.27.27,3.4-.59h0A5.59,5.59,0,0,0,5,8.51c2.76,0,5-1.91,5-4.26S7.76,0,5,0Zm.72,6.94H4.42V5.52h1.3Zm1-3.16a1.18,1.18,0,0,1-.23.42A3.39,3.39,0,0,1,6,4.63a1.61,1.61,0,0,0-.3.3.44.44,0,0,0-.09.26H4.47a2.26,2.26,0,0,1,.07-.68,1.3,1.3,0,0,1,.3-.43,2.63,2.63,0,0,0,.43-.53.84.84,0,0,0,.08-.4.53.53,0,0,0-.11-.37A.33.33,0,0,0,5,2.65c-.32,0-.49.3-.49.89L3.22,3.39C3.41,2.18,4,1.57,5.07,1.57A1.68,1.68,0,0,1,6.32,2a1.65,1.65,0,0,1,.45,1.18A1.64,1.64,0,0,1,6.68,3.78Z"/></svg>