<?xml version="1.0" encoding="utf-8"?>
<!-- Generator: Adobe Illustrator 24.1.3, SVG Export Plug-In . SVG Version: 6.00 Build 0)  -->
<svg version="1.1" id="圖層_1" xmlns="http://www.w3.org/2000/svg" xmlns:xlink="http://www.w3.org/1999/xlink" x="0px" y="0px"
	 viewBox="0 0 21.31 20" style="enable-background:new 0 0 21.31 20;" xml:space="preserve">
<style type="text/css">
	.st0{fill:url(#SVGID_1_);}
	.st1{fill:url(#SVGID_2_);}
	.st2{fill:url(#SVGID_3_);}
	.st3{fill:url(#SVGID_4_);}
	.st4{fill:url(#SVGID_5_);}
	.st5{fill:url(#SVGID_6_);}
	.st6{fill:url(#SVGID_7_);}
	.st7{fill:url(#SVGID_8_);}
	.st8{fill:#E11515;}
	.st9{fill:url(#SVGID_9_);}
	.st10{fill:url(#SVGID_10_);}
	.st11{fill:url(#SVGID_11_);}
	.st12{fill:url(#SVGID_12_);}
	.st13{fill:#FFFFFF;}
</style>
<g>
	<g>
		<path class="st8" d="M10.54,1.27C5.72,1.34,1.87,5.3,1.93,10.12c0.06,4.82,4.02,8.67,8.84,8.61c4.82-0.06,8.67-4.02,8.61-8.84
			C19.32,5.06,15.36,1.21,10.54,1.27z M10.51,15.31l-0.05,0c-0.74-0.02-1.27-0.57-1.24-1.3c0.02-0.72,0.56-1.24,1.27-1.24l0.04,0
			c0.76,0.02,1.28,0.56,1.26,1.32C11.78,14.81,11.25,15.31,10.51,15.31z M13.64,9.12c-0.17,0.25-0.56,0.56-1.04,0.93l-0.53,0.37
			c-0.29,0.23-0.47,0.44-0.53,0.65c-0.05,0.17-0.08,0.21-0.08,0.55l0,0.09H9.41l0.01-0.17c0.02-0.71,0.04-1.12,0.34-1.47
			c0.46-0.54,1.47-1.19,1.52-1.22c0.15-0.11,0.27-0.23,0.36-0.37c0.21-0.29,0.31-0.53,0.31-0.75c0-0.32-0.09-0.61-0.28-0.87
			c-0.18-0.25-0.52-0.38-1.01-0.38c-0.49,0-0.82,0.15-1.02,0.47c-0.2,0.33-0.31,0.67-0.31,1.01v0.09h-2.1l0-0.09
			c0.05-1.28,0.51-2.21,1.36-2.75c0.53-0.34,1.2-0.52,1.97-0.52c1.01,0,1.87,0.25,2.54,0.73c0.68,0.49,1.03,1.23,1.03,2.19
			C14.14,8.15,13.97,8.66,13.64,9.12z"/>
	</g>
</g>
</svg>
