<?xml version="1.0" encoding="utf-8"?>
<!-- Generator: Adobe Illustrator 24.1.3, SVG Export Plug-In . SVG Version: 6.00 Build 0)  -->
<svg version="1.1" id="圖層_1" xmlns="http://www.w3.org/2000/svg" xmlns:xlink="http://www.w3.org/1999/xlink" x="0px" y="0px"
	 viewBox="0 0 39.02 58.54" style="enable-background:new 0 0 39.02 58.54;" xml:space="preserve">
<style type="text/css">
	.st0{fill:#CC8B43;}
</style>
<g>
	<path class="st0" d="M32.93,58.54H6.1c-3.36,0-6.1-2.73-6.1-6.1V6.1C0,2.73,2.74,0,6.1,0h26.83c3.36,0,6.1,2.73,6.1,6.1v46.34
		C39.02,55.8,36.29,58.54,32.93,58.54z M6.1,2.44c-2.02,0-3.66,1.64-3.66,3.66v46.34c0,2.02,1.64,3.66,3.66,3.66h26.83
		c2.02,0,3.66-1.64,3.66-3.66V6.1c0-2.02-1.64-3.66-3.66-3.66H6.1z"/>
	<path class="st0" d="M19.51,41.46c-6.72,0-12.2-5.47-12.2-12.2s5.47-12.2,12.2-12.2s12.2,5.47,12.2,12.2S26.24,41.46,19.51,41.46z
		 M19.51,19.51c-5.38,0-9.76,4.38-9.76,9.76s4.38,9.76,9.76,9.76s9.76-4.38,9.76-9.76S24.89,19.51,19.51,19.51z"/>
	<path class="st0" d="M11.75,38.25c-0.31,0-0.62-0.12-0.86-0.36c-0.48-0.48-0.48-1.25,0-1.72l7.4-7.4V18.29
		c0-0.67,0.55-1.22,1.22-1.22c0.67,0,1.22,0.55,1.22,1.22v10.98c0,0.32-0.13,0.63-0.36,0.86l-7.76,7.76
		C12.38,38.13,12.06,38.25,11.75,38.25z"/>
	<path class="st0" d="M24.39,7.32h-9.76c-2.02,0-3.66-1.64-3.66-3.66c0-0.67-0.55-1.22-1.22-1.22H7.32c-0.67,0-1.22-0.55-1.22-1.22
		S6.64,0,7.32,0h2.44c2.02,0,3.66,1.64,3.66,3.66c0,0.67,0.55,1.22,1.22,1.22h9.76c0.67,0,1.22-0.55,1.22-1.22
		c0-2.02,1.64-3.66,3.66-3.66h2.44c0.67,0,1.22,0.55,1.22,1.22s-0.55,1.22-1.22,1.22h-2.44c-0.67,0-1.22,0.55-1.22,1.22
		C28.05,5.68,26.41,7.32,24.39,7.32z"/>
</g>
</svg>
