<?xml version="1.0" encoding="utf-8"?>
<!-- Generator: Adobe Illustrator 24.1.3, SVG Export Plug-In . SVG Version: 6.00 Build 0)  -->
<svg version="1.1" id="圖層_1" xmlns="http://www.w3.org/2000/svg" xmlns:xlink="http://www.w3.org/1999/xlink" x="0px" y="0px"
	 viewBox="0 0 91 91" style="enable-background:new 0 0 91 91;" xml:space="preserve">
<style type="text/css">
	.st0{fill:#CC8B43;}
</style>
<g>
	<g>
		<path class="st0" d="M86.36,9.6h-6.02V4.78c0-2.63-2.15-4.78-4.78-4.78H14.67c-2.63,0-4.78,2.14-4.78,4.78V9.6H4.64
			C2.08,9.6,0,11.68,0,14.24v18.18c0,0.98,0.8,1.78,1.78,1.78s1.78-0.8,1.78-1.78V14.24c0-0.59,0.5-1.08,1.09-1.08h5.25v45.97H3.55
			V48.38c0-0.98-0.8-1.78-1.78-1.78S0,47.4,0,48.38v18.18c0,2.56,2.08,4.64,4.64,4.64h25.87l-3.58,7.25h-2.91
			c-3.46,0-6.28,2.81-6.28,6.27v4.49c0,0.98,0.8,1.78,1.78,1.78h51.96c0.98,0,1.78-0.8,1.78-1.78v-4.49c0-3.46-2.82-6.27-6.28-6.27
			h-2.92l-3.58-7.25h25.87c2.56,0,4.64-2.08,4.64-4.64V14.24C91,11.68,88.92,9.6,86.36,9.6L86.36,9.6z M13.45,4.78
			c0-0.66,0.56-1.22,1.22-1.22h60.88c0.67,0,1.23,0.56,1.23,1.22v9.53H13.45V4.78z M13.45,17.86h63.34v41.27H13.45V17.86z
			 M69.7,84.73v2.72H21.3v-2.72c0-1.5,1.22-2.72,2.72-2.72h42.97C68.48,82.01,69.7,83.23,69.7,84.73z M60.1,78.46H30.9l3.58-7.25
			h22.04L60.1,78.46z M87.45,66.57c0,0.59-0.5,1.08-1.09,1.08H4.64c-0.59,0-1.09-0.5-1.09-1.08v-3.88h83.89V66.57z M87.45,59.13
			h-7.11V13.16h6.02c0.59,0,1.09,0.5,1.09,1.08V59.13z"/>
		<path class="st0" d="M63.03,7.15h-0.01c-0.98,0-1.77,0.8-1.77,1.78s0.8,1.78,1.78,1.78s1.78-0.8,1.78-1.78S64.01,7.15,63.03,7.15
			L63.03,7.15z"/>
		<path class="st0" d="M70.37,7.15h-0.01c-0.98,0-1.77,0.8-1.77,1.78s0.8,1.78,1.78,1.78s1.78-0.8,1.78-1.78S71.35,7.15,70.37,7.15
			L70.37,7.15z"/>
		<path class="st0" d="M55.69,7.15h-0.01c-0.98,0-1.77,0.8-1.77,1.78s0.8,1.78,1.78,1.78c0.98,0,1.78-0.8,1.78-1.78
			S56.67,7.15,55.69,7.15z"/>
		<path class="st0" d="M40.3,7.15H19.87c-0.98,0-1.78,0.8-1.78,1.78s0.8,1.78,1.78,1.78H40.3c0.98,0,1.78-0.8,1.78-1.78
			S41.28,7.15,40.3,7.15z"/>
		<path class="st0" d="M60.38,36.2h10.15c0.59,0,1.13-0.29,1.47-0.77c0.33-0.48,0.4-1.1,0.19-1.65c-1.94-5.02-6.86-8.39-12.24-8.39
			c-4.97,0-9.54,2.87-11.74,7.25h-6.19c-2.2-4.39-6.77-7.25-11.74-7.25c-5.39,0-10.3,3.37-12.24,8.39
			c-0.21,0.55-0.14,1.16,0.19,1.64c0.33,0.48,0.88,0.77,1.47,0.77h8.8c1.27,0,2.3,1.03,2.3,2.29c0,1.26-1.03,2.29-2.3,2.29h-8.8
			c-0.59,0-1.13,0.29-1.47,0.77c-0.33,0.48-0.4,1.1-0.19,1.64c1.93,5.02,6.85,8.4,12.24,8.4c4.97,0,9.54-2.87,11.74-7.26h6.19
			c2.2,4.39,6.77,7.26,11.74,7.26c5.38,0,10.3-3.37,12.24-8.4c0.21-0.55,0.14-1.16-0.19-1.65c-0.33-0.48-0.88-0.77-1.47-0.77H60.38
			c-1.26,0-2.29-1.03-2.29-2.29C58.08,37.23,59.11,36.2,60.38,36.2L60.38,36.2z M60.38,44.34h7.12c-1.79,2.29-4.57,3.71-7.55,3.71
			c-3.93,0-7.51-2.46-8.93-6.12c-0.26-0.69-0.92-1.14-1.66-1.14h-8.5c-0.74,0-1.39,0.45-1.66,1.14c-1.41,3.66-4.99,6.12-8.92,6.12
			c-2.98,0-5.77-1.42-7.55-3.71h5.77c3.23,0,5.85-2.62,5.85-5.84c0-3.22-2.63-5.85-5.85-5.85h-5.77c1.78-2.28,4.57-3.7,7.55-3.7
			c3.93,0,7.51,2.46,8.92,6.12c0.26,0.69,0.92,1.14,1.66,1.14h8.5c0.73,0,1.39-0.45,1.66-1.14c1.41-3.66,5-6.12,8.93-6.12
			c2.98,0,5.76,1.42,7.55,3.7h-7.12c-3.22,0-5.85,2.62-5.85,5.85C54.53,41.72,57.15,44.34,60.38,44.34z"/>
		<path class="st0" d="M1.78,42.19c0.98,0,1.78-0.8,1.78-1.78c0-0.98-0.8-1.78-1.78-1.78S0,39.42,0,40.4v0.01
			C0,41.4,0.8,42.19,1.78,42.19z"/>
	</g>
</g>
</svg>
