<?xml version="1.0" encoding="utf-8"?>
<!-- Generator: Adobe Illustrator 24.1.3, SVG Export Plug-In . SVG Version: 6.00 Build 0)  -->
<svg version="1.1" id="圖層_1" xmlns="http://www.w3.org/2000/svg" xmlns:xlink="http://www.w3.org/1999/xlink" x="0px" y="0px"
	 viewBox="0 0 91.82 91.82" style="enable-background:new 0 0 91.82 91.82;" xml:space="preserve">
<style type="text/css">
	.st0{fill:#CC8B43;}
</style>
<g>
	<g>
		<path class="st0" d="M69.54,13.03c0.99,0,1.79-0.8,1.79-1.79s-0.8-1.79-1.79-1.79h-0.01c-0.99,0-1.79,0.8-1.79,1.79
			C67.74,12.22,68.55,13.03,69.54,13.03z"/>
		<path class="st0" d="M79.22,13.03c0.99,0,1.79-0.8,1.79-1.79s-0.8-1.79-1.79-1.79h-0.01c-0.99,0-1.79,0.8-1.79,1.79
			C77.42,12.22,78.23,13.03,79.22,13.03z"/>
		<path class="st0" d="M59.86,13.03c0.99,0,1.79-0.8,1.79-1.79s-0.8-1.79-1.79-1.79h-0.01c-0.99,0-1.79,0.8-1.79,1.79
			C58.06,12.22,58.87,13.03,59.86,13.03L59.86,13.03z"/>
		<path class="st0" d="M12.6,13.03h26.95c0.99,0,1.79-0.8,1.79-1.79s-0.8-1.79-1.79-1.79H12.6c-0.99,0-1.79,0.8-1.79,1.79
			C10.81,12.22,11.61,13.03,12.6,13.03z"/>
		<path class="st0" d="M86.07,0H5.75C2.58,0,0,2.58,0,5.75v66.41c0,3.17,2.58,5.75,5.75,5.75h14.35c1.14,1.73,2.47,3.36,3.98,4.86
			c5.83,5.83,13.58,9.04,21.83,9.04c8.25,0,16-3.21,21.83-9.04c1.51-1.51,2.83-3.14,3.97-4.86h14.36c3.17,0,5.75-2.58,5.75-5.75
			V5.75C91.82,2.58,89.24,0,86.07,0L86.07,0z M5.75,3.59h80.31c1.19,0,2.17,0.97,2.17,2.17v13.13H3.59V5.75
			C3.59,4.56,4.56,3.59,5.75,3.59z M86.07,74.33H73.73c5.51-11.48,3.51-25.7-5.99-35.2c-4.83-4.83-10.96-7.86-17.72-8.77
			c-6.54-0.87-13.31,0.39-19.05,3.57c-0.87,0.48-1.18,1.57-0.7,2.44c0.48,0.87,1.57,1.18,2.44,0.7c10.58-5.85,23.94-3.96,32.49,4.59
			c10.64,10.64,10.64,27.94,0,38.58c-5.15,5.15-12.01,7.99-19.29,7.99s-14.14-2.84-19.29-7.99c-8.55-8.55-10.44-21.91-4.59-32.49
			c0.48-0.87,0.17-1.96-0.7-2.44c-0.87-0.48-1.96-0.17-2.44,0.7c-3.18,5.74-4.45,12.51-3.57,19.05c0.44,3.26,1.37,6.37,2.76,9.26
			H5.75c-1.19,0-2.17-0.97-2.17-2.17V22.47h84.65v49.69C88.23,73.35,87.26,74.33,86.07,74.33L86.07,74.33z"/>
		<path class="st0" d="M45.91,71.28c0.99,0,1.79-0.8,1.79-1.79v-4.28c0-0.99-0.8-1.79-1.79-1.79c-0.99,0-1.79,0.8-1.79,1.79v4.28
			C44.11,70.48,44.92,71.28,45.91,71.28z"/>
		<path class="st0" d="M45.91,81.51c8.47,0,15.37-6.89,15.37-15.37v-6.86c0-2.32-1.67-4.26-3.87-4.68v-4.7c0-5.29-4.31-9.6-9.6-9.6
			h-3.79c-5.29,0-9.6,4.31-9.6,9.6v4.7c-2.2,0.42-3.87,2.36-3.87,4.68v6.86C30.54,74.61,37.44,81.51,45.91,81.51z M38,49.9
			c0-3.32,2.7-6.01,6.01-6.01h3.79c3.32,0,6.02,2.7,6.02,6.01v4.62H38V49.9z M34.13,59.28c0-0.64,0.54-1.18,1.18-1.18h21.2
			c0.64,0,1.18,0.54,1.18,1.18v6.86c0,6.5-5.28,11.78-11.78,11.78s-11.78-5.28-11.78-11.78L34.13,59.28z"/>
		<path class="st0" d="M24.08,39.12c-0.7,0.7-0.7,1.84,0,2.54c0.35,0.35,0.81,0.53,1.27,0.53c0.46,0,0.92-0.18,1.27-0.53l0.01-0.01
			c0.7-0.7,0.7-1.83,0-2.53C25.92,38.42,24.78,38.42,24.08,39.12L24.08,39.12z"/>
	</g>
</g>
</svg>
