<?xml version="1.0" encoding="utf-8"?>
<!-- Generator: Adobe Illustrator 24.1.3, SVG Export Plug-In . SVG Version: 6.00 Build 0)  -->
<svg version="1.1" id="圖層_1" xmlns="http://www.w3.org/2000/svg" xmlns:xlink="http://www.w3.org/1999/xlink" x="0px" y="0px"
	 viewBox="0 0 34.86 34.2" style="enable-background:new 0 0 34.86 34.2;" xml:space="preserve">
<style type="text/css">
	.st0{fill:#FFFFFF;}
	.st1{fill:#008061;}
	.st2{fill:#F5821F;}
	.st3{fill:#ED1B2D;}
	.st4{fill:#00A041;}
	.st5{fill:#008CD6;}
	.st6{fill:#FF0000;}
	.st7{fill:#FF0000;stroke:#FFFFFF;stroke-width:3;stroke-miterlimit:23.027;}
	.st8{fill:none;stroke:#FF0000;stroke-width:5.7568;stroke-linecap:round;stroke-miterlimit:23.027;}
</style>
<g id="g2862_1_" transform="translate(-14.3907,-17.5756)">
	<polygon id="polygon10_1_" class="st0" points="14.96,18.03 48.72,18.03 48.72,50.73 14.96,50.73 	"/>
	<polygon id="polygon12_1_" class="st1" points="14.78,17.78 48.86,17.78 48.86,50.89 14.78,50.89 	"/>
	<path id="path14_3_" class="st0" d="M35.79,48.71v1.33h-8.17v-1.33h-6.18c-0.6,0-1.1-0.63-1.1-1.41l-2.59-26.17
		c0-0.78,0.6-1.41,1.35-1.41h24.99c0.74,0,1.35,0.63,1.35,1.41L42.88,47.3c0,0.78-0.49,1.41-1.1,1.41L35.79,48.71L35.79,48.71z"/>
	<path id="path16_1_" class="st2" d="M22.3,23.55h16.73c-1.65,0.62-6.66,4.01-7.91,6.3h-8.8L22.3,23.55L22.3,23.55z"/>
	<path id="path18_3_" class="st3" d="M35.64,41.59c-0.24,2.28-0.25,5.06-0.25,7.97h-7.25c0-2.92,0.12-5.69,0.36-7.97H35.64
		L35.64,41.59z"/>
	<polygon id="polygon20_1_" class="st1" points="24.42,38.29 24.42,39.18 23.26,39.18 23.26,40.06 24.42,40.06 24.42,41.08 
		21.77,41.08 21.77,36.36 24.42,36.36 24.42,37.41 23.26,37.41 23.26,38.29 	"/>
	<polygon id="polygon22_1_" class="st1" points="30.58,38.29 30.58,39.18 29.43,39.18 29.43,40.06 30.58,40.06 30.58,41.08 
		27.94,41.08 27.94,36.36 30.58,36.36 30.58,37.41 29.43,37.41 29.43,38.29 	"/>
	<polygon id="polygon24_1_" class="st1" points="37.38,38.29 37.38,39.18 36.22,39.18 36.22,40.06 37.38,40.06 37.38,41.08 
		34.73,41.08 34.73,36.36 37.38,36.36 37.38,37.41 36.22,37.41 36.22,38.29 	"/>
	<polygon id="polygon26_1_" class="st1" points="26.41,36.36 26.41,40.06 27.57,40.06 27.57,41.08 24.92,41.08 24.92,36.36 	"/>
	<polygon id="polygon28_1_" class="st1" points="32.72,39.55 32.16,36.36 30.86,36.36 31.6,41.08 33.51,41.08 34.41,36.36 
		33.3,36.36 	"/>
	<polygon id="polygon30_1_" class="st1" points="38.01,36.36 39.44,36.36 39.44,41.07 38.01,41.07 	"/>
	<path id="path32_1_" class="st1" d="M39.44,37.76c0.08-0.52,0.81-0.38,0.81-0.08v3.4h1.44v-3.99c0-0.85-1.19-1.19-2.24-0.44
		L39.44,37.76L39.44,37.76z"/>
	<path id="path34_1_" class="st3" d="M36.31,35.7c0.15-1.8,2.62-4.75,5.01-5.52v-6.96c-6.58,2.95-10.86,7.4-11.79,12.46L36.31,35.7
		L36.31,35.7z"/>
</g>
</svg>
