<?xml version="1.0" encoding="utf-8"?>
<!-- Generator: Adobe Illustrator 24.1.3, SVG Export Plug-In . SVG Version: 6.00 Build 0)  -->
<svg version="1.1" id="圖層_1" xmlns="http://www.w3.org/2000/svg" xmlns:xlink="http://www.w3.org/1999/xlink" x="0px" y="0px"
	 viewBox="0 0 91.82 77.47" style="enable-background:new 0 0 91.82 77.47;" xml:space="preserve">
<style type="text/css">
	.st0{fill:#CC8B43;}
</style>
<g id="XMLID_1736_">
	<g id="XMLID_529_">
		<path id="XMLID_540_" class="st0" d="M89.8,56.88c1.24-1.18,2.02-2.85,2.02-4.7c0-2.76-1.73-5.13-4.17-6.06
			c0.59-0.98,0.93-2.12,0.93-3.34c0-3.58-2.91-6.49-6.49-6.49h-26.5l3.63-3.63c2.01-2.01,3.18-4.68,3.29-7.53
			c0.11-2.84-0.85-5.6-2.71-7.75c-1.44-1.68-4-1.9-5.71-0.49L40.84,27.78c-2.94,2.42-5.42,5.27-7.4,8.51H1.79
			C0.8,36.29,0,37.09,0,38.08c0,0.99,0.8,1.79,1.79,1.79h32.67c0.64,0,1.24-0.35,1.56-0.9c1.84-3.23,4.23-6.06,7.1-8.42l13.24-10.89
			c0.21-0.18,0.53-0.15,0.71,0.06c2.59,3.02,2.42,7.59-0.4,10.41l-3.95,3.95c-0.98,0.98-1.26,2.43-0.74,3.7
			c0.53,1.27,1.76,2.1,3.14,2.1h6.52c-0.44,0.88-0.69,1.86-0.69,2.91c0,1.85,0.78,3.52,2.02,4.7c-1.24,1.18-2.02,2.85-2.02,4.7
			s0.78,3.52,2.02,4.7c-1.24,1.18-2.02,2.85-2.02,4.7c0,1.85,0.78,3.52,2.02,4.7c-1.24,1.18-2.02,2.85-2.02,4.7
			c0,1.04,0.25,2.03,0.69,2.91H45.15c-2.98,0-5.81-1.13-7.96-3.2c-0.72-0.68-1.85-0.66-2.54,0.06c-0.68,0.72-0.66,1.85,0.06,2.54
			c2.83,2.7,6.53,4.19,10.44,4.19h36.93c3.58,0,6.49-2.91,6.49-6.49c0-1.22-0.34-2.36-0.93-3.34c2.44-0.94,4.17-3.3,4.17-6.06
			C91.82,59.73,91.04,58.06,89.8,56.88L89.8,56.88z M64.54,42.78c0-1.6,1.3-2.91,2.91-2.91h14.63c1.6,0,2.91,1.3,2.91,2.91
			c0,1.6-1.3,2.91-2.91,2.91H67.45C65.85,45.69,64.54,44.38,64.54,42.78z M64.54,52.18c0-1.6,1.3-2.91,2.91-2.91h17.88
			c1.6,0,2.91,1.3,2.91,2.91c0,1.6-1.3,2.91-2.91,2.91H67.45C65.85,55.09,64.54,53.78,64.54,52.18z M82.08,73.89H67.45
			c-1.6,0-2.91-1.3-2.91-2.91c0-1.6,1.3-2.91,2.91-2.91h14.63c1.6,0,2.91,1.3,2.91,2.91C84.99,72.58,83.69,73.89,82.08,73.89z
			 M85.33,64.49H67.45c-1.6,0-2.91-1.3-2.91-2.91c0-1.6,1.3-2.91,2.91-2.91h17.88c1.6,0,2.91,1.3,2.91,2.91
			C88.23,63.18,86.93,64.49,85.33,64.49z"/>
		<path id="XMLID_556_" class="st0" d="M19.81,70.2H1.79C0.8,70.2,0,71,0,71.99s0.8,1.79,1.79,1.79h18.02c0.99,0,1.79-0.8,1.79-1.79
			S20.8,70.2,19.81,70.2z"/>
		<path id="XMLID_1010_" class="st0" d="M66.37,12.38l3.1,2.24l-1.19,3.64c-0.48,1.47,0.02,3.01,1.27,3.91
			c0.62,0.45,1.34,0.68,2.06,0.68c0.72,0,1.43-0.23,2.06-0.68l3.1-2.26l3.08,2.24c1.25,0.91,2.87,0.91,4.12,0
			c1.25-0.91,1.75-2.45,1.26-3.92l-1.18-3.61l3.09-2.24c1.25-0.91,1.75-2.44,1.27-3.91c-0.48-1.47-1.78-2.42-3.33-2.42h-3.84
			l-1.18-3.63C79.58,0.95,78.27,0,76.73,0c0,0,0,0,0,0c-1.55,0-2.85,0.95-3.33,2.43l-1.16,3.62h-3.82c-1.55,0-2.85,0.95-3.33,2.42
			C64.61,9.94,65.11,11.47,66.37,12.38z M73.54,9.63c0.78,0,1.47-0.5,1.71-1.24l1.48-4.6l1.49,4.6c0.24,0.74,0.93,1.24,1.71,1.24
			l4.87,0l-3.93,2.85c-0.63,0.46-0.89,1.27-0.65,2.01l1.51,4.59l-3.91-2.84c-0.63-0.46-1.48-0.46-2.11,0l-3.93,2.86l1.51-4.62
			c0.24-0.74-0.02-1.55-0.66-2.01l-3.94-2.84H73.54z"/>
		<path id="XMLID_1011_" class="st0" d="M27.88,70.2c-0.47,0-0.93,0.19-1.27,0.53c-0.33,0.33-0.52,0.8-0.52,1.27
			s0.19,0.93,0.52,1.27c0.33,0.33,0.8,0.53,1.27,0.53c0.47,0,0.93-0.19,1.27-0.53c0.34-0.33,0.53-0.8,0.53-1.27
			s-0.19-0.93-0.53-1.27C28.81,70.39,28.35,70.2,27.88,70.2z"/>
	</g>
</g>
</svg>
