<?xml version="1.0" encoding="utf-8"?>
<!-- Generator: Adobe Illustrator 24.1.3, SVG Export Plug-In . SVG Version: 6.00 Build 0)  -->
<svg version="1.1" id="圖層_1" xmlns="http://www.w3.org/2000/svg" xmlns:xlink="http://www.w3.org/1999/xlink" x="0px" y="0px"
	 viewBox="0 0 41.87 41.87" style="enable-background:new 0 0 41.87 41.87;" xml:space="preserve">
<style type="text/css">
	.st0{fill:url(#SVGID_1_);}
	.st1{fill:url(#SVGID_2_);}
	.st2{fill:url(#SVGID_3_);}
	.st3{fill:url(#SVGID_4_);}
	.st4{fill:url(#SVGID_5_);}
	.st5{fill:url(#SVGID_6_);}
	.st6{fill:url(#SVGID_7_);}
	.st7{fill:url(#SVGID_8_);}
</style>
<g>
	<linearGradient id="SVGID_1_" gradientUnits="userSpaceOnUse" x1="20.9313" y1="29.6553" x2="20.9313" y2="8.7228">
		<stop  offset="0" style="stop-color:#CCA172"/>
		<stop  offset="1" style="stop-color:#F1C999"/>
	</linearGradient>
	<path class="st0" d="M20.93,8.72c-5.77,0-10.47,4.69-10.47,10.47c0,5.77,4.69,10.47,10.47,10.47S31.4,24.96,31.4,19.19
		C31.4,13.42,26.7,8.72,20.93,8.72z M20.71,17.88h0.44c1.8,0,3.27,1.47,3.27,3.27c0,1.42-0.91,2.62-2.18,3.07v0.64
		c0,0.72-0.59,1.31-1.31,1.31c-0.72,0-1.31-0.59-1.31-1.31v-0.44h-0.87c-0.72,0-1.31-0.59-1.31-1.31c0-0.72,0.59-1.31,1.31-1.31h2.4
		c0.36,0,0.65-0.29,0.65-0.65c0-0.36-0.29-0.65-0.65-0.65h-0.44c-1.8,0-3.27-1.47-3.27-3.27c0-1.42,0.91-2.62,2.18-3.07v-0.64
		c0-0.72,0.59-1.31,1.31-1.31c0.72,0,1.31,0.59,1.31,1.31v0.44h0.87c0.72,0,1.31,0.59,1.31,1.31c0,0.72-0.59,1.31-1.31,1.31h-2.4
		c-0.36,0-0.65,0.29-0.65,0.65S20.35,17.88,20.71,17.88z"/>
	<linearGradient id="SVGID_2_" gradientUnits="userSpaceOnUse" x1="29.4642" y1="41.8665" x2="29.4642" y2="17.9191">
		<stop  offset="0" style="stop-color:#CCA172"/>
		<stop  offset="1" style="stop-color:#F1C999"/>
	</linearGradient>
	<path class="st1" d="M38.85,17.92c-0.72,0-1.31,0.59-1.31,1.31c0,7.82-5.45,14.38-12.74,16.14v-1.63c0-1.16-1.41-1.75-2.23-0.92
		l-3.41,3.41c-0.51,0.51-0.51,1.34,0,1.85l3.41,3.41c0.82,0.82,2.23,0.25,2.23-0.92v-2.5c8.75-1.79,15.36-9.56,15.36-18.83
		C40.16,18.51,39.57,17.92,38.85,17.92L38.85,17.92z"/>
	<linearGradient id="SVGID_3_" gradientUnits="userSpaceOnUse" x1="8.1342" y1="37.4125" x2="8.1342" y2="7.0037">
		<stop  offset="0" style="stop-color:#CCA172"/>
		<stop  offset="1" style="stop-color:#F1C999"/>
	</linearGradient>
	<path class="st2" d="M15.39,34.87c-6.62-2.32-11.07-8.6-11.07-15.64c0-1.99,0.36-3.93,1.03-5.74l1.57,0.9
		c1,0.58,2.22-0.34,1.92-1.47L7.52,7.97c-0.19-0.69-0.89-1.11-1.6-0.92L0.97,8.37c-1.13,0.3-1.32,1.82-0.31,2.4l2.41,1.39
		c-0.89,2.23-1.35,4.61-1.35,7.07c0,8.14,5.15,15.42,12.82,18.11c0.69,0.24,1.43-0.13,1.67-0.8C16.43,35.85,16.07,35.11,15.39,34.87
		z"/>
	<linearGradient id="SVGID_4_" gradientUnits="userSpaceOnUse" x1="25.2163" y1="15.5825" x2="25.2163" y2="9.443680e-04">
		<stop  offset="0" style="stop-color:#CCA172"/>
		<stop  offset="1" style="stop-color:#F1C999"/>
	</linearGradient>
	<path class="st3" d="M40.22,8.58L37.4,9.33C33.98,3.67,27.74,0,20.93,0c-4.38,0-8.49,1.44-11.88,4.16C8.49,4.62,8.4,5.44,8.85,6
		c0.46,0.57,1.28,0.65,1.84,0.2c2.92-2.35,6.46-3.59,10.24-3.59c5.62,0,10.79,2.9,13.82,7.42l-1.52,0.41
		c-1.12,0.3-1.32,1.81-0.32,2.4l4.43,2.56c0.3,0.17,0.66,0.22,0.99,0.13c0.33-0.09,0.62-0.31,0.79-0.61l2.56-4.43
		C42.27,9.49,41.35,8.28,40.22,8.58L40.22,8.58z"/>
</g>
</svg>
