<?xml version="1.0" encoding="utf-8"?>
<!-- Generator: Adobe Illustrator 24.1.3, SVG Export Plug-In . SVG Version: 6.00 Build 0)  -->
<svg version="1.1" id="圖層_1" xmlns="http://www.w3.org/2000/svg" xmlns:xlink="http://www.w3.org/1999/xlink" x="0px" y="0px"
	 viewBox="0 0 37.96 34" style="enable-background:new 0 0 37.96 34;" xml:space="preserve">
<style type="text/css">
	.st0{fill:url(#SVGID_1_);}
	.st1{fill:url(#SVGID_2_);}
	.st2{fill:url(#SVGID_3_);}
	.st3{fill:url(#SVGID_4_);}
	.st4{fill:url(#SVGID_5_);}
	.st5{fill:url(#SVGID_6_);}
	.st6{fill:url(#SVGID_7_);}
	.st7{fill:url(#SVGID_8_);}
	.st8{fill:#E11515;}
	.st9{fill:url(#SVGID_9_);}
	.st10{fill:url(#SVGID_10_);}
	.st11{fill:url(#SVGID_11_);}
	.st12{fill:url(#SVGID_12_);}
	.st13{fill:#FFFFFF;}
</style>
<g>
	<linearGradient id="SVGID_1_" gradientUnits="userSpaceOnUse" x1="18.9788" y1="31.5448" x2="18.9788" y2="2.4561">
		<stop  offset="0" style="stop-color:#950000"/>
		<stop  offset="0.4815" style="stop-color:#E73832"/>
		<stop  offset="1" style="stop-color:#EF0C29"/>
	</linearGradient>
	<path class="st0" d="M27.75,2.46H10.21C8.44,2.46,7,3.89,7,5.66v22.67c0,1.77,1.44,3.21,3.21,3.21h17.54
		c1.77,0,3.21-1.44,3.21-3.21V5.66C30.96,3.89,29.52,2.46,27.75,2.46z M11.28,8.02h15.4c0.47,0,0.86,0.39,0.86,0.86
		c0,0.47-0.39,0.86-0.86,0.86h-15.4c-0.47,0-0.86-0.38-0.86-0.86C10.42,8.4,10.81,8.02,11.28,8.02z M11.28,15.93h15.4
		c0.47,0,0.86,0.39,0.86,0.86c0,0.47-0.39,0.86-0.86,0.86h-15.4c-0.47,0-0.86-0.39-0.86-0.86C10.42,16.32,10.81,15.93,11.28,15.93z
		 M18.12,25.56h-6.84c-0.47,0-0.86-0.38-0.86-0.86c0-0.47,0.39-0.86,0.86-0.86h6.84c0.47,0,0.86,0.39,0.86,0.86
		C18.98,25.17,18.59,25.56,18.12,25.56z M29.25,26.22c-0.22,0.85-0.5,1.66-1.12,2.33c-1.38,1.48-3.52,1.84-5.25,0.85
		c-1.7-0.96-2.55-2.98-2.03-4.83c0.55-1.96,2.29-3.26,4.26-3.19c1.99,0.07,3.65,1.49,4.05,3.45c0.02,0.1,0.06,0.19,0.09,0.28
		C29.25,25.48,29.25,25.85,29.25,26.22z"/>
	<path class="st8" d="M27.48,26.04c-0.8,0.01-1.6,0-2.45,0c0-0.98-0.02-1.9,0.01-2.82c0.01-0.37,0.24-0.63,0.65-0.63
		c0.44-0.01,0.65,0.26,0.68,0.65c0.03,0.47,0.01,0.94,0.01,1.47c0.4,0,0.75-0.01,1.1,0c0.44,0.01,0.74,0.29,0.74,0.66
		C28.21,25.75,27.92,26.03,27.48,26.04z"/>
</g>
</svg>
