<?xml version="1.0" encoding="utf-8"?>
<!-- Generator: Adobe Illustrator 24.1.3, SVG Export Plug-In . SVG Version: 6.00 Build 0)  -->
<svg version="1.1" id="圖層_1" xmlns="http://www.w3.org/2000/svg" xmlns:xlink="http://www.w3.org/1999/xlink" x="0px" y="0px"
	 viewBox="0 0 14.45 9.87" style="enable-background:new 0 0 14.45 9.87;" xml:space="preserve">
<style type="text/css">
	.st0{fill:#E11515;}
	.st1{fill:#FFFFFF;}
	.st2{fill:none;stroke:#FFFFFF;stroke-width:0.5;stroke-linecap:round;stroke-linejoin:round;stroke-miterlimit:10;}
</style>
<g>
	<path class="st0" d="M13.3,0H1.15C0.51,0,0,0.51,0,1.15v7.58c0,0.63,0.51,1.15,1.15,1.15H13.3c0.63,0,1.15-0.51,1.15-1.15V1.15
		C14.45,0.51,13.94,0,13.3,0z"/>
	<path class="st1" d="M4.05,5.08c-0.16-0.23-0.34-0.43-0.54-0.6S3.13,4.16,2.98,4.02C2.82,3.88,2.73,3.73,2.73,3.57
		c0-0.21,0.1-0.31,0.29-0.31c0.12,0,0.2,0.03,0.24,0.1C3.3,3.43,3.31,3.53,3.31,3.64v0.3h0.92V3.66c0-0.35-0.08-0.63-0.24-0.83
		C3.84,2.63,3.6,2.52,3.25,2.49V2.07H2.8L2.78,2.49C2.47,2.51,2.22,2.62,2.04,2.82C1.85,3.02,1.75,3.3,1.75,3.65
		c0,0.31,0.09,0.56,0.25,0.77s0.33,0.39,0.53,0.55c0.2,0.15,0.38,0.3,0.53,0.45C3.22,5.57,3.3,5.74,3.3,5.93
		c0,0.28-0.1,0.42-0.29,0.43c-0.15,0-0.24-0.05-0.27-0.14C2.71,6.14,2.7,6.03,2.7,5.9V5.54H1.78v0.52c0,0.36,0.11,0.63,0.31,0.81
		c0.19,0.18,0.43,0.27,0.7,0.27v0.41h0.45V7.13c0.69-0.11,1.04-0.52,1.04-1.22C4.28,5.59,4.2,5.31,4.05,5.08z"/>
	<rect x="7.22" y="1.97" class="st1" width="0.76" height="0.76"/>
	<rect x="8.88" y="1.97" class="st1" width="4.2" height="0.76"/>
	<rect x="7.22" y="3.67" class="st1" width="0.76" height="0.76"/>
	<rect x="8.88" y="3.67" class="st1" width="4.2" height="0.76"/>
	<rect x="7.22" y="5.37" class="st1" width="0.76" height="0.76"/>
	<rect x="8.88" y="5.37" class="st1" width="4.2" height="0.76"/>
	<rect x="7.22" y="7.07" class="st1" width="0.76" height="0.76"/>
	<rect x="8.88" y="7.07" class="st1" width="2.48" height="0.76"/>
</g>
<line class="st2" x1="5.69" y1="1.73" x2="5.69" y2="8.14"/>
</svg>
