<?xml version="1.0" encoding="utf-8"?>
<!-- Generator: Adobe Illustrator 24.1.3, SVG Export Plug-In . SVG Version: 6.00 Build 0)  -->
<svg version="1.1" id="圖層_1" xmlns="http://www.w3.org/2000/svg" xmlns:xlink="http://www.w3.org/1999/xlink" x="0px" y="0px"
	 viewBox="0 0 30.23 25" style="enable-background:new 0 0 30.23 25;" xml:space="preserve">
<style type="text/css">
	.st0{fill:url(#SVGID_1_);}
	.st1{fill:url(#SVGID_2_);}
</style>
<g>
	<g>
		<g>
			<linearGradient id="SVGID_1_" gradientUnits="userSpaceOnUse" x1="15.1163" y1="-3.5" x2="15.1163" y2="20.8538">
				<stop  offset="0" style="stop-color:#EF0C29"/>
				<stop  offset="0.5185" style="stop-color:#E73832"/>
				<stop  offset="1" style="stop-color:#950000"/>
			</linearGradient>
			<path class="st0" d="M25.87,0H4.36C1.96,0,0,1.96,0,4.36v16.28C0,23.04,1.96,25,4.36,25h21.51c2.4,0,4.36-1.96,4.36-4.36V4.36
				C30.23,1.96,28.28,0,25.87,0z M22.09,15.12c-1.44,0-2.62-1.17-2.62-2.62s1.17-2.62,2.62-2.62h6.77v5.23H22.09z"/>
		</g>
	</g>
	<g>
		<g>
			<linearGradient id="SVGID_2_" gradientUnits="userSpaceOnUse" x1="22.6744" y1="-3.5003" x2="22.6744" y2="20.8541">
				<stop  offset="0" style="stop-color:#EF0C29"/>
				<stop  offset="0.5185" style="stop-color:#E73832"/>
				<stop  offset="1" style="stop-color:#950000"/>
			</linearGradient>
			<path class="st1" d="M23.26,11.63h-1.16c-0.48,0-0.87,0.39-0.87,0.87c0,0.48,0.39,0.87,0.87,0.87h1.16
				c0.48,0,0.87-0.39,0.87-0.87C24.13,12.02,23.74,11.63,23.26,11.63z"/>
		</g>
	</g>
</g>
</svg>
