<?xml version="1.0" encoding="utf-8"?>
<!-- Generator: Adobe Illustrator 24.1.3, SVG Export Plug-In . SVG Version: 6.00 Build 0)  -->
<svg version="1.1" id="圖層_1" xmlns="http://www.w3.org/2000/svg" xmlns:xlink="http://www.w3.org/1999/xlink" x="0px" y="0px"
	 viewBox="0 0 51.4 44.32" style="enable-background:new 0 0 51.4 44.32;" xml:space="preserve">
<style type="text/css">
	.st0{fill:#00C3FF;}
	.st1{fill:#00C114;}
	.st2{fill:#00C014;}
</style>
<g>
	<path class="st2" d="M35.71,14.57c-4.77,0.25-8.92,1.7-12.29,4.96c-3.4,3.3-4.96,7.35-4.53,12.36c-1.87-0.23-3.56-0.49-5.27-0.63
		c-0.59-0.05-1.29,0.02-1.79,0.3c-1.66,0.94-3.25,1.99-5.13,3.17c0.35-1.56,0.57-2.93,0.97-4.25c0.29-0.97,0.16-1.51-0.74-2.14
		c-5.73-4.04-8.14-10.1-6.34-16.33C2.26,6.27,6.37,2.77,11.94,0.95C19.56-1.54,28.11,1,32.74,7.04
		C34.42,9.23,35.44,11.68,35.71,14.57L35.71,14.57z M13.75,12.63c0.04-1.14-0.94-2.17-2.12-2.2c-1.2-0.04-2.19,0.88-2.22,2.07
		c-0.04,1.2,0.88,2.16,2.09,2.19C12.7,14.72,13.71,13.8,13.75,12.63L13.75,12.63z M25.21,10.43c-1.18,0.02-2.17,1.02-2.15,2.17
		c0.02,1.19,1,2.11,2.21,2.1c1.21-0.01,2.13-0.95,2.12-2.16C27.38,11.35,26.41,10.41,25.21,10.43z"/>
	<path class="st2" d="M46.43,44.32c-1.51-0.67-2.9-1.68-4.37-1.84c-1.47-0.15-3.02,0.69-4.55,0.85c-4.68,0.48-8.88-0.83-12.34-4.03
		c-6.58-6.09-5.64-15.42,1.97-20.41c6.77-4.43,16.69-2.96,21.46,3.2c4.16,5.37,3.67,12.49-1.41,17c-1.47,1.31-2,2.38-1.06,4.1
		C46.31,43.52,46.33,43.92,46.43,44.32L46.43,44.32z M29.23,27.67c0.96,0,1.75-0.75,1.79-1.7c0.04-1.01-0.77-1.85-1.78-1.85
		c-1,0-1.83,0.85-1.8,1.84C27.48,26.9,28.28,27.67,29.23,27.67L29.23,27.67z M40.32,24.12c-0.93-0.01-1.73,0.76-1.76,1.7
		c-0.04,1.01,0.74,1.84,1.74,1.84c0.97,0,1.73-0.73,1.76-1.69C42.1,24.96,41.31,24.13,40.32,24.12z"/>
</g>
</svg>
