<?xml version="1.0" encoding="utf-8"?>
<!-- Generator: Adobe Illustrator 24.1.3, SVG Export Plug-In . SVG Version: 6.00 Build 0)  -->
<svg version="1.1" id="圖層_1" xmlns="http://www.w3.org/2000/svg" xmlns:xlink="http://www.w3.org/1999/xlink" x="0px" y="0px"
	 viewBox="0 0 41.87 41.87" style="enable-background:new 0 0 41.87 41.87;" xml:space="preserve">
<style type="text/css">
	.st0{fill:url(#SVGID_1_);}
	.st1{fill:url(#SVGID_2_);}
	.st2{fill:url(#SVGID_3_);}
	.st3{fill:url(#SVGID_4_);}
	.st4{fill:url(#SVGID_5_);}
	.st5{fill:url(#SVGID_6_);}
	.st6{fill:url(#SVGID_7_);}
	.st7{fill:url(#SVGID_8_);}
</style>
<g>
	<linearGradient id="SVGID_1_" gradientUnits="userSpaceOnUse" x1="24.0177" y1="41.4568" x2="24.0177" y2="5.6982">
		<stop  offset="0" style="stop-color:#CCA172"/>
		<stop  offset="1" style="stop-color:#F1C999"/>
	</linearGradient>
	<path class="st0" d="M24.02,1.2c-6.08,0-11.03,4.95-11.03,11.03c0,6.08,4.95,11.03,11.03,11.03s11.03-4.95,11.03-11.03
		C35.04,6.14,30.1,1.2,24.02,1.2z M25.18,17.23v0.24c0,0.64-0.52,1.16-1.16,1.16c-0.64,0-1.16-0.52-1.16-1.16v-0.11
		c-0.53-0.09-1.02-0.29-1.63-0.7c-0.53-0.35-0.68-1.07-0.33-1.6s1.07-0.68,1.6-0.33c0.56,0.37,0.75,0.4,1.52,0.39
		c0.74,0,1.04-0.59,1.1-0.93c0.05-0.31-0.01-0.72-0.58-0.92c-0.88-0.31-1.92-0.71-2.64-1.28c-1.59-1.25-1.1-4.09,0.97-4.85V6.98
		c0-0.64,0.52-1.16,1.16-1.16c0.64,0,1.16,0.52,1.16,1.16v0.1c0.77,0.23,1.3,0.7,1.3,0.7c0.47,0.43,0.5,1.16,0.07,1.63
		c-0.43,0.47-1.16,0.5-1.63,0.07c-0.3-0.22-0.75-0.32-1.23-0.17c-0.31,0.09-0.39,0.41-0.41,0.51c-0.04,0.2,0.02,0.33,0.04,0.36
		c0.47,0.37,1.41,0.71,1.99,0.92C28.35,12.17,27.98,16.22,25.18,17.23L25.18,17.23z"/>
	<linearGradient id="SVGID_2_" gradientUnits="userSpaceOnUse" x1="20.9337" y1="41.4567" x2="20.9337" y2="5.6982">
		<stop  offset="0" style="stop-color:#CCA172"/>
		<stop  offset="1" style="stop-color:#F1C999"/>
	</linearGradient>
	<path class="st1" d="M34.62,23.72l-11.23,3.31c0.36,0.87,0.55,1.82,0.55,2.8v0.41c0,2.88-2.98,4.8-5.6,3.62l-5.89-2.65
		c-0.58-0.26-0.84-0.95-0.58-1.53c0.26-0.58,0.95-0.84,1.53-0.58l5.89,2.65c1.09,0.49,2.34-0.3,2.34-1.51v-0.41
		c0-1.99-1.2-3.74-2.98-4.54l-5.09-2.29c-1.98-0.89-4.25-0.88-6.21,0.03l-5.47,2.49c-0.41,0.19-0.68,0.6-0.68,1.05v12.31
		c0,0.87,0.83,1.39,1.57,1.11l7.7-2.93l9.16,3.21c2.08,0.73,4.37,0.51,6.28-0.62l12.46-7.34c1.42-0.84,2.31-2.4,2.31-4.05
		C40.67,25.1,37.66,22.83,34.62,23.72L34.62,23.72z"/>
</g>
</svg>
