<svg id="圖層_1" data-name="圖層 1" xmlns="http://www.w3.org/2000/svg" viewBox="0 0 9.62 11.57"><defs><style>.cls-1{fill:#595757;}</style></defs><title>0</title><path class="cls-1" d="M3.8,0a1.13,1.13,0,0,1,1,.23A14.33,14.33,0,0,1,8.61,4.2a5.8,5.8,0,0,1,1,3.45,4.74,4.74,0,0,1-1.25,3,2.59,2.59,0,0,1-2,.89h-.7A5.13,5.13,0,0,0,6.77,8.76a4.57,4.57,0,0,0-.71-2.89,1.89,1.89,0,0,1-.71,1.72,1.21,1.21,0,0,1-1.73-.32,2.6,2.6,0,0,0-.17,1.81,6.91,6.91,0,0,0,.66,1.5,1.35,1.35,0,0,1,.18.95A3.66,3.66,0,0,1,.07,8.63,4.37,4.37,0,0,1,.73,5.4,22.42,22.42,0,0,1,2.12,3.58,6.61,6.61,0,0,0,3.56,1.2C3.67.82,3.72.43,3.8,0ZM7.35,10.3l.06.06a9,9,0,0,0,.75-1,4.05,4.05,0,0,0-.05-4.08,12,12,0,0,0-3.4-3.83,1.4,1.4,0,0,0-.18-.12,12,12,0,0,1-.7,1.44C3.4,3.42,2.89,4,2.44,4.65A11.86,11.86,0,0,0,1.27,6.4a3.08,3.08,0,0,0,.08,3,2.19,2.19,0,0,0,1.6,1,4.2,4.2,0,0,1,.76-5.13c.08.21.14.39.22.56a4.4,4.4,0,0,0,.36.72c.09.12.3.27.41.24A.53.53,0,0,0,5,6.48a3.77,3.77,0,0,0,0-1.11A14.4,14.4,0,0,0,4.69,3.9a1.44,1.44,0,0,1,1.43.45A5.23,5.23,0,0,1,7.66,8.58C7.61,9.16,7.45,9.73,7.35,10.3Z"/></svg>