<?xml version="1.0" encoding="utf-8"?>
<!-- Generator: Adobe Illustrator 21.1.0, SVG Export Plug-In . SVG Version: 6.00 Build 0)  -->
<svg version="1.1" id="圖層_1" xmlns="http://www.w3.org/2000/svg" xmlns:xlink="http://www.w3.org/1999/xlink" x="0px" y="0px"
	 viewBox="0 0 201.2 200" style="enable-background:new 0 0 201.2 200;" xml:space="preserve">
<style type="text/css">
	.st0{fill:#1296DB;}
</style>
<g>
	<path class="st0" d="M165.7,125.6c29,9.6,35.5,10.2,35.5,10.2V32c0-17.7-14.4-32-32.2-32H32.2C14.4,0,0,14.3,0,32V168
		c0,17.7,14.4,32,32.2,32H169c17.8,0,32.2-14.3,32.2-32v-1.3c0,0-52.3-21.7-78.8-34.3c-17.7,21.7-40.6,34.8-64.3,34.8
		c-40.1,0-53.8-34.9-34.8-57.9c4.1-5,11.2-9.8,22.1-12.5c17.1-4.2,44.4,2.6,69.9,11c4.8-8.7,8.6-18,11.3-27.5H48v-7.9h40.6V58.1
		H39.5v-7.9h49.1V29.9c0,0,0-3.4,3.5-3.4h19.8v23.7h48.6v7.9h-48.6v14.2h39.7c-3.8,15.5-9.6,29.7-16.8,42.2
		C146.8,118.8,157.6,122.9,165.7,125.6L165.7,125.6z M48.9,108.6c-5,0.5-14.5,2.7-19.6,7.2c-15.5,13.4-6.2,37.9,25.1,37.9
		c18.2,0,36.4-11.6,50.7-30.1C84.7,113.9,67.5,106.8,48.9,108.6L48.9,108.6z"/>
</g>
</svg>
