<?xml version="1.0" encoding="utf-8"?>
<!-- Generator: Adobe Illustrator 19.0.0, SVG Export Plug-In . SVG Version: 6.00 Build 0)  -->
<svg version="1.1" id="圖層_1" xmlns="http://www.w3.org/2000/svg" xmlns:xlink="http://www.w3.org/1999/xlink" x="0px" y="0px"
	 viewBox="0 0 53 63.8" enable-background="new 0 0 53 63.8" xml:space="preserve">
<g id="XMLID_516_">
	<g id="XMLID_155_">
		<path id="XMLID_166_" d="M44.5,12.6c-2.1-5.4-5.4-9.7-11.1-11.7c-3.4-1.2-10.8-1-13.1-0.3c-4.4,1.3-7.7,4-10,7.9
			c-3.2,5.4-4.2,11.2-4,17.4c0,0.3,0.1,0.7,0.3,0.9C7,27,7.4,27.1,7.8,27.2c4.7,1.3,9.5,2.1,14.4,2.3c7.4,0.4,14.7-0.2,22-2
			c0.7-0.2,1.4-0.3,2.1-0.7c0.3-0.3,0.3-0.7,0.3-1.1C46.7,21.1,46.1,16.8,44.5,12.6z"/>
		<path id="XMLID_165_" d="M49.7,34.5c-0.1-0.3-0.3-0.7-0.7-0.8c-0.4-0.2-0.8-0.1-1.2,0c-1.9,0.5-3.8,1-5.7,1.4
			c-0.3,0.1-0.6,0.2-0.8,0.4c-0.2,0.5,0,0.9,0,1.4c0.3,3.3,0.4,6.6-0.1,9.9c-1,6.8-5.2,12.3-12.7,13.2c-4.2,0.5-8.1-0.3-11.5-3
			c-3.3-2.6-4.8-6.2-5.4-10.2c-0.5-3.3-0.4-6.6-0.1-9.9c0-0.5,0.2-0.9,0-1.4c-0.2-0.3-0.5-0.4-0.9-0.5c-2-0.4-3.9-0.9-5.8-1.4
			c-0.4-0.1-0.7-0.1-1.1,0.1c-0.4,0.2-0.6,0.7-0.7,1.1c-0.7,1.7-1.3,3.5-1.8,5.3c-0.7,2.3-1.9,11.5-0.8,12c1.2,0.5,4-3.7,5.1-5.3
			c0.1-0.2,0.2-0.4,0.2-0.4c0.5,4.6,2.6,8.6,6.2,11.8c2.6,2.3,5.7,3.7,9.1,4.4c1.5,0.3,3,0.3,4.4,0.5c0.5,0,1.1,0,1.6,0
			c0.3-0.1,0.6-0.1,1-0.1c4.8-0.2,9-1.7,12.6-4.8c3.6-3.2,5.8-7.2,6.2-11.8c0,0,3.9,6,5.3,5.7C53.7,51.7,52.9,42.4,49.7,34.5z"/>
		<path id="XMLID_164_" fill="#EA1923" d="M3.8,33.7c0.8-2.4,1.8-4.8,2.8-7.1c13.2,3.6,26.3,3.6,39.5,0c1,2.4,2,4.7,2.8,7.1
			c-2.5,0.6-5.1,1.3-7.6,1.9c-0.4,0.4-1,0.5-1.5,0.6c-5.1,0.9-10.3,1.4-15.5,1.3c-1.4,0-1.4,0-1.4,1.4c0,1.8,0,3.5,0,5.3
			c0,1.4-0.4,1.9-1.8,1.9c-2,0.1-4.1,0.1-6.1-0.2c-1.2-0.2-1.5-0.5-1.5-1.7c0-2,0-3.9,0-5.9c0-1.6,0-1.6-1.5-2.1
			c-0.2-0.1-0.4-0.2-0.7-0.4C8.9,35,6.4,34.4,3.8,33.7z"/>
		<path id="XMLID_163_" fill="#F9AA07" d="M26.5,26c-4-0.1-7.7-1.2-11.2-3.1c-0.4-0.2-0.9-0.3-0.9-0.9c0-0.5,0.6-0.7,1-0.9
			c2.4-1,5-1.3,7.6-1.5c4.2-0.3,8.3-0.2,12.4,0.8c0.9,0.2,1.7,0.4,2.5,0.9c0.8,0.5,0.8,0.8,0,1.3c-2.6,1.6-5.3,2.5-8.3,3
			C28.6,25.9,27.5,26,26.5,26z"/>
		<path id="XMLID_162_" fill="#FEFEFE" d="M35.1,12.8c0,1.5-0.4,3-1.5,4.1c-1.3,1.4-3.1,1.3-4.3-0.2c-1.6-2-1.5-5.8,0.2-7.8
			c1.4-1.5,3.1-1.5,4.4,0.1C34.8,10.2,35.1,11.5,35.1,12.8z"/>
		<path id="XMLID_161_" fill="#FEFEFE" d="M17.8,12.8c0-1.5,0.4-2.8,1.4-3.9c1.2-1.2,2.7-1.2,3.9-0.1c2,1.9,2.2,6.2,0.3,8.2
			c-1.2,1.3-2.8,1.3-4.1,0C18.3,16,17.8,14.5,17.8,12.8z"/>
		<path id="XMLID_160_" fill="#FEFEFE" d="M11.4,35.6c2.5,0.3,2.5,0.3,2.5,2.7c0,2.1,0,4.1,0,6.2c0,0.6,0.2,0.8,0.7,0.9
			c2.4,0.3,4.8,0.4,7.2,0.2c0.7,0,0.8-0.3,0.8-1c0-2.3,0-4.6,0-6.9c0-0.4,0-0.7,0.6-0.7c6,0.3,11.9-0.3,17.8-1.4c0.1,0,0.2,0,0.3,0
			c0.7,4.9,0.9,9.8-0.6,14.6c-2.5,7.7-9.1,11.1-16.6,10.1c-7.2-1-11.8-5.9-12.9-13.4C10.8,43.1,10.8,39.4,11.4,35.6z"/>
		<path id="XMLID_159_" fill="#040404" d="M31.9,12.1c0.4,0,0.9,0.1,1.4,0.3c0.4,0.2,0.5,0.5,0.4,0.9c-0.2,0.4-0.5,0.5-0.8,0.3
			c-1.1-0.6-2.2-0.5-3.1,0.4c-0.2,0.2-0.4,0.3-0.7,0c-0.2-0.2-0.1-0.5,0.1-0.7C29.8,12.5,30.7,12.1,31.9,12.1z"/>
		<path id="XMLID_158_" fill="#030303" d="M23.8,13.4c0,1.1-0.7,2-1.5,1.9c-0.8,0-1.5-1-1.5-2.1c0-1,0.7-1.8,1.5-1.9
			C23.1,11.4,23.8,12.3,23.8,13.4z"/>
		<path id="XMLID_157_" fill="#F9AA07" d="M12.3,58c0,0-5.9,1.8-5.7,3.8c0.2,2,14.8,2.9,18.9,1.1C25.5,62.8,18.5,63,12.3,58z"/>
		<path id="XMLID_156_" fill="#F9AA07" d="M40.6,58c0,0,5.9,1.8,5.7,3.8s-14.8,2.9-18.9,1.1C27.4,62.8,34.3,63,40.6,58z"/>
	</g>
</g>
</svg>
