<svg id="圖層_1" data-name="圖層 1" xmlns="http://www.w3.org/2000/svg" xmlns:xlink="http://www.w3.org/1999/xlink" viewBox="0 0 30 30"><defs><style>.cls-1{fill:#fdb940;}.cls-2{fill:url(#未命名漸層_45);}.cls-3{fill:#fff;}.cls-4{fill:#461310;}</style><linearGradient id="未命名漸層_45" x1="19.53" y1="-1.41" x2="0.2" y2="18.19" gradientUnits="userSpaceOnUse"><stop offset="0" stop-color="#b04000"/><stop offset="0.5" stop-color="#e37b2c"/><stop offset="1" stop-color="#b04000"/></linearGradient></defs><circle class="cls-1" cx="15" cy="15" r="15"/><path class="cls-2" d="M19.7,2.5a17.24,17.24,0,0,1,4.4.59A15,15,0,0,0,3.39,24.5a17.23,17.23,0,0,1-.73-4.95A17,17,0,0,1,19.7,2.5Z"/><path class="cls-3" d="M5.37,7.57H24.63a1,1,0,0,1,1,1v2.92a0,0,0,0,1,0,0H4.37a0,0,0,0,1,0,0V8.57A1,1,0,0,1,5.37,7.57Z"/><path class="cls-3" d="M4.37,12.5v8.93a1,1,0,0,0,1,1H24.63a1,1,0,0,0,1-1V12.5Zm5.07,7.75H6V18.84H9.44Zm7-2.19H6v-.8H16.48Z"/><path class="cls-3" d="M2.62,11,2,10.6c.14-.2.26-.39.38-.58l-.73-.75-.44.44-.49-.5.45-.44L.46,8,1,7.5l.73.75.36-.35.38.4a5.27,5.27,0,0,0-.61-1.53l.55-.54c.14.29.28.57.41.86l.52-.51a5.8,5.8,0,0,0-.77-.47l.58-.55.17.11A5.75,5.75,0,0,1,3.9,6l.76-.73.46.48-.76.75.4.41.67-.66.46.46-.68.66.38.4.7-.68.48.5-.69.68.38.39.77-.75.43.45L5.71,10.28l.21.22L5.38,11,3.25,8.82v.1L2.59,9,2.5,8.47l-.29.28.57.59.09-.16A2.28,2.28,0,0,0,3,9l.54.45-.23.44L4.4,11a.72.72,0,0,1,0,1l-.4.38L3.4,12l.3-.29a.23.23,0,0,0,0-.36l-.8-.82C2.82,10.69,2.73,10.86,2.62,11ZM3.78,7.08l-.6.59.4.41.6-.59ZM4.64,8,4,8.55l.38.39L5,8.35Zm.86.89-.6.59.38.4.61-.6Z"/><path class="cls-4" d="M4.66,5.3l.46.48-.76.75.4.41.67-.66.46.46-.68.66.38.4.7-.68.48.5-.69.68.38.39.77-.75.43.45L5.71,10.28l.21.22L5.38,11,3.25,8.82v.1L2.59,9,2.5,8.47l-.29.28.57.59.09-.16A2.28,2.28,0,0,0,3,9l.54.45-.23.44L4.4,11a.72.72,0,0,1,0,1l-.4.38L3.4,12l.3-.29a.23.23,0,0,0,0-.36l-.8-.82c-.09.15-.18.32-.29.49L2,10.6c.14-.2.26-.39.38-.58l-.73-.75-.44.44-.49-.5.45-.44L.46,8,1,7.5l.73.75.36-.35.38.4a5.27,5.27,0,0,0-.61-1.53l.55-.54c.14.29.28.57.41.86l.52-.51a5.8,5.8,0,0,0-.77-.47l.58-.55.17.11A5.75,5.75,0,0,1,3.9,6l.76-.73M3.58,8.08l.6-.59-.4-.41-.6.59.4.41m.83.86L5,8.35,4.64,8,4,8.55l.38.39m.87.9.61-.6L5.5,8.85l-.6.59.38.4m-.62-5A.44.44,0,0,0,4.34,5l-.5.48-.3-.18-.19-.12a.54.54,0,0,0-.21-.05.42.42,0,0,0-.32.13l-.57.55,0,0a.51.51,0,0,0-.13.09l-.55.53A.47.47,0,0,0,1.46,7a3.92,3.92,0,0,1,.29.58h0l-.41-.42A.47.47,0,0,0,1,7a.5.5,0,0,0-.32.13l-.53.52A.45.45,0,0,0,0,8a.44.44,0,0,0,.13.32l.41.42-.12.12a.43.43,0,0,0-.14.32.51.51,0,0,0,.13.33L.9,10a.46.46,0,0,0,.33.13A.49.49,0,0,0,1.55,10l.11-.12.16.16-.18.27a.46.46,0,0,0,.12.62l.59.43a.44.44,0,0,0,.27.09H2.7a.46.46,0,0,0,.3-.19l.23.24-.15.15a.49.49,0,0,0-.14.38.45.45,0,0,0,.22.34l.58.35a.46.46,0,0,0,.23.06.44.44,0,0,0,.32-.13l.4-.38,0,0a1.23,1.23,0,0,0,.3-1l0,.05a.45.45,0,0,0,.32.13.47.47,0,0,0,.32-.12l.54-.53a.45.45,0,0,0,.1-.51L8,8.72a.45.45,0,0,0,.14-.32A.49.49,0,0,0,8,8.07l-.44-.45a.45.45,0,0,0-.32-.14h0A.49.49,0,0,0,7.1,7.3l-.49-.5a.42.42,0,0,0-.27-.14.47.47,0,0,0-.13-.24L5.76,6a.44.44,0,0,0-.18-.12v0a.44.44,0,0,0-.13-.33L5,5a.47.47,0,0,0-.32-.14Z"/><path class="cls-3" d="M10,1.8,7.65,4.09a6,6,0,0,1,.18,1.25L9.41,7l-.57.55L7.72,6.38c0,.11,0,.22,0,.35L7,6.63A6.51,6.51,0,0,0,7,4.71l-.75.73L5.82,5l1-1a.75.75,0,0,0,0-.16L6.59,4l-.26-.27-.93.9L5,4.21l.93-.9-.24-.25.54-.52.24.24,1-1-.25-.25L7.75,1,8,1.26l.82-.8.45.46-.82.8L8.67,2l-.56.54-.22-.23-1,1L7,3.43l.29-.28a.61.61,0,0,0,0,.12,1.66,1.66,0,0,0,0,.16L9.57,1.35Zm1.58,1.48L10.86,4l.28.29a.67.67,0,0,1,0,1.07L10.41,6l-.6-.32.65-.63c.12-.09.1-.2,0-.32l-.18-.18L8.86,5.94l-.45-.47L9.8,4.12l-.23-.23.19-.56L8.31,4.73l-.43-.44,2-2c.18-.17.32-.21.44-.11s.22.27.17.53a.39.39,0,0,0,0,.14,1.71,1.71,0,0,1-.15.56l.09.09.73-.71Z"/><path class="cls-4" d="M8.81.46l.45.46-.82.8L8.67,2l-.56.54-.22-.23-1,1L7,3.43l.29-.28a.61.61,0,0,0,0,.12,1.66,1.66,0,0,0,0,.16L9.57,1.35,10,1.8,7.65,4.09a6,6,0,0,1,.18,1.25L9.41,7l-.57.55L7.72,6.38c0,.11,0,.22,0,.35L7,6.63A6.51,6.51,0,0,0,7,4.71l-.75.73L5.82,5l1-1a.75.75,0,0,0,0-.16L6.59,4l-.26-.27-.93.9L5,4.21l.93-.9-.24-.25.54-.52.24.24,1-1-.25-.25L7.75,1,8,1.26l.82-.8m1.39,1.7a.19.19,0,0,1,.14,0c.16.09.22.27.17.53a.39.39,0,0,0,0,.14,1.71,1.71,0,0,1-.15.56l.09.09.73-.71.45.46L10.86,4l.28.29a.67.67,0,0,1,0,1.07L10.41,6l-.6-.32.65-.63c.12-.09.1-.2,0-.32l-.18-.18L8.86,5.94l-.45-.47L9.8,4.12l-.23-.23.19-.56L8.31,4.73l-.43-.44,2-2a.45.45,0,0,1,.3-.16M8.81,0a.48.48,0,0,0-.32.13L8,.62A.42.42,0,0,0,7.75.55a.44.44,0,0,0-.32.13l-.56.54a.46.46,0,0,0-.13.32.41.41,0,0,0,.06.24l-.38.37a.44.44,0,0,0-.24-.07.44.44,0,0,0-.32.13l-.54.52a.43.43,0,0,0-.14.32.5.5,0,0,0,.06.24l-.61.59a.47.47,0,0,0,0,.65L5.08,5a.41.41,0,0,0,.3.14.72.72,0,0,0,.11.19l.44.44a.47.47,0,0,0,.33.14.45.45,0,0,0,.32-.13l0,0a6.58,6.58,0,0,1-.08.84.52.52,0,0,0,.09.34.45.45,0,0,0,.3.18l.69.1h.06a.41.41,0,0,0,.16,0l.67.68A.43.43,0,0,0,8.83,8h0a.42.42,0,0,0,.31-.13l.58-.55A.55.55,0,0,0,9.87,7a.49.49,0,0,0-.13-.33l-.47-.48L9.46,6a.37.37,0,0,0,.13.12l.6.32a.43.43,0,0,0,.22.06.5.5,0,0,0,.32-.13l.69-.68A1.12,1.12,0,0,0,11.51,4l.4-.39a.46.46,0,0,0,0-.65l-.45-.46a.45.45,0,0,0-.32-.14h0a.47.47,0,0,0-.17,0,.86.86,0,0,0-.37-.56l-.13-.08a.46.46,0,0,0-.13-.27L9.9,1A.42.42,0,0,0,9.72.92.44.44,0,0,0,9.59.6L9.14.14A.43.43,0,0,0,8.82,0Z"/></svg>