<svg id="圖層_1" data-name="圖層 1" xmlns="http://www.w3.org/2000/svg" viewBox="0 0 30 30"><defs><style>.cls-1{fill:#fff;}.cls-2{fill:#f92a1e;}.cls-3{fill:#ed171f;}.cls-4{fill:#082f67;}.cls-5{fill:#006a65;}</style></defs><rect class="cls-1" width="30" height="30" rx="7.3"/><path class="cls-2" d="M22.91.14a7,7,0,0,1,7,7V22.91a7,7,0,0,1-6.95,7H7.09A7,7,0,0,1,.14,22.91V7.09a7,7,0,0,1,7-6.95H22.91m0-.14H7.09A7.1,7.1,0,0,0,0,7.09V22.91A7.1,7.1,0,0,0,7.09,30H22.91A7.1,7.1,0,0,0,30,22.91V7.09A7.1,7.1,0,0,0,22.91,0Z" transform="translate(0 0)"/><path class="cls-2" d="M22.91,0H7.09A7.1,7.1,0,0,0,0,7.09V17.56a29.86,29.86,0,0,0,15,3.73,29.86,29.86,0,0,0,15-3.73V7.09A7.1,7.1,0,0,0,22.91,0Z" transform="translate(0 0)"/><path class="cls-2" d="M22.91.27a6.83,6.83,0,0,1,6.82,6.82V17.4A29.62,29.62,0,0,1,15,21,29.62,29.62,0,0,1,.27,17.4V7.09A6.83,6.83,0,0,1,7.09.27H22.91m0-.27H7.09A7.1,7.1,0,0,0,0,7.09V17.56a29.86,29.86,0,0,0,15,3.73,29.86,29.86,0,0,0,15-3.73V7.09A7.1,7.1,0,0,0,22.91,0Z" transform="translate(0 0)"/><path class="cls-3" d="M12.69,27.17l.93-4.41a.5.5,0,0,1,.49-.4h-2a.51.51,0,0,0-.49.4l-.92,4.41a.49.49,0,0,0,.49.6h2A.5.5,0,0,1,12.69,27.17Z" transform="translate(0 0)"/><path class="cls-4" d="M15.24,27.17l.93-4.41a.5.5,0,0,1,.49-.4H14.11a.5.5,0,0,0-.49.4l-.93,4.41a.5.5,0,0,0,.49.6h2.55A.5.5,0,0,1,15.24,27.17Z" transform="translate(0 0)"/><path class="cls-5" d="M18.39,27.38,19.31,23a.5.5,0,0,0-.49-.61H16.66a.5.5,0,0,0-.49.4l-.93,4.41a.5.5,0,0,0,.49.6H17.9A.5.5,0,0,0,18.39,27.38Z" transform="translate(0 0)"/><path class="cls-1" d="M9,15.82c-.16.84-.65,1.2-1.26,1.2s-.91-.34-.75-1.19l.33-1.7H7.7l-.33,1.72c-.11.57.08.81.41.81s.62-.24.73-.81l.33-1.72h.43Z" transform="translate(0 0)"/><path class="cls-1" d="M11,17h-.43l.23-1.2c.06-.29,0-.54-.29-.54a.58.58,0,0,0-.53.5L9.72,17H9.29l.28-1.47c0-.23.07-.41.1-.58H10l0,.3h0a.89.89,0,0,1,.69-.35c.32,0,.63.21.51.84Z" transform="translate(0 0)"/><path class="cls-1" d="M12.19,14.61a.19.19,0,0,1-.2-.25.31.31,0,0,1,.3-.25.19.19,0,0,1,.2.25A.29.29,0,0,1,12.19,14.61ZM12,17h-.43l.39-2.05h.43Z" transform="translate(0 0)"/><path class="cls-1" d="M14.47,15.94A1.21,1.21,0,0,1,13.31,17c-.53,0-.86-.39-.74-1a1.23,1.23,0,0,1,1.18-1.09C14.31,14.88,14.59,15.31,14.47,15.94Zm-.8-.73c-.37,0-.59.39-.65.74s.05.74.36.74S14,16.36,14,16,14,15.21,13.67,15.21Z" transform="translate(0 0)"/><path class="cls-1" d="M16.39,17H16l.23-1.2c.06-.29,0-.54-.29-.54a.58.58,0,0,0-.53.5L15.13,17H14.7L15,15.51c0-.23.07-.41.1-.58h.37l0,.3h0a.89.89,0,0,1,.69-.35c.32,0,.63.21.51.84Z" transform="translate(0 0)"/><path class="cls-1" d="M17.49,14.17a4.17,4.17,0,0,1,.71-.06,1,1,0,0,1,.74.23.68.68,0,0,1,.14.61,1.18,1.18,0,0,1-1.24.93.9.9,0,0,1-.24,0L17.39,17H17Zm.17,1.35a.82.82,0,0,0,.24,0,.69.69,0,0,0,.74-.57c.07-.35-.14-.52-.48-.52a1.63,1.63,0,0,0-.3,0Z" transform="translate(0 0)"/><path class="cls-1" d="M20.64,16.49a2.31,2.31,0,0,0-.07.49h-.39l0-.24h0a.86.86,0,0,1-.63.28.47.47,0,0,1-.49-.6c.1-.51.59-.76,1.29-.76,0-.15.09-.46-.32-.46a1.19,1.19,0,0,0-.53.14l0-.28a1.37,1.37,0,0,1,.69-.18c.61,0,.7.4.61.84ZM20.32,16c-.34,0-.74.06-.81.42s.08.33.24.33a.54.54,0,0,0,.51-.41Z" transform="translate(0 0)"/><path class="cls-1" d="M23.1,14.93l-.77,1.42a4.44,4.44,0,0,1-.9,1.29,1.31,1.31,0,0,1-.53.26l0-.36a1.28,1.28,0,0,0,.73-.63.31.31,0,0,0,0-.09l-.34-1.89h.47l.15,1.15c0,.13,0,.29,0,.41h0l.18-.41.55-1.15Z" transform="translate(0 0)"/><path class="cls-1" d="M9.56,6.4H3.33a.41.41,0,0,1,0-.81H9.56a.41.41,0,0,1,0,.81Z" transform="translate(0 0)"/><path class="cls-1" d="M10.1,8.83H2.79a.41.41,0,0,1,0-.81H10.1a.41.41,0,0,1,0,.81Z" transform="translate(0 0)"/><path class="cls-1" d="M8.47,12.35H4.59a1.12,1.12,0,0,1-.91-.46,1.11,1.11,0,0,1-.17-1L4.3,8.31a.4.4,0,1,1,.77.24l-.79,2.57a.32.32,0,0,0,.31.42H8.47a.48.48,0,0,0,.41-.22.5.5,0,0,0,0-.46l-.28-.65a.41.41,0,0,1,.21-.53.42.42,0,0,1,.54.21l.27.65a1.26,1.26,0,0,1-.11,1.23A1.29,1.29,0,0,1,8.47,12.35Z" transform="translate(0 0)"/><path class="cls-1" d="M11.72,12.35a.41.41,0,0,1-.41-.4V7.08a.41.41,0,0,1,.82,0V12A.41.41,0,0,1,11.72,12.35Z" transform="translate(0 0)"/><path class="cls-1" d="M17.28,12.35h-.69a.41.41,0,1,1,0-.81h.69a.26.26,0,0,0,.26-.26V6.58a.18.18,0,0,0-.18-.18H12.63L12,5.74a.42.42,0,0,1,0-.57.41.41,0,0,1,.58,0l.42.42h4.39a1,1,0,0,1,1,1v4.7A1.07,1.07,0,0,1,17.28,12.35Z" transform="translate(0 0)"/><path class="cls-1" d="M17.13,9.92a.47.47,0,0,1-.27-.1L15,8.17l-.43-.42.23.62L13.36,9.8a.4.4,0,0,1-.57,0,.41.41,0,0,1,0-.58l1.89-1.89a.4.4,0,0,1,.55,0L17.11,9,20.9,5.17a.41.41,0,0,1,.58,0,.42.42,0,0,1,0,.57L17.42,9.8A.4.4,0,0,1,17.13,9.92Z" transform="translate(0 0)"/><path class="cls-1" d="M20.92,12.35a.4.4,0,0,1-.41-.4V7.32l.81-.79V12A.4.4,0,0,1,20.92,12.35Z" transform="translate(0 0)"/><path class="cls-1" d="M27.21,7.21h-4.8a.41.41,0,1,1,0-.81h4.8a.41.41,0,0,1,0,.81Z" transform="translate(0 0)"/><path class="cls-1" d="M24.17,10.19a.4.4,0,0,1-.29-.12L22.53,8.72a.41.41,0,0,1,0-.58.4.4,0,0,1,.57,0l1.35,1.35a.41.41,0,0,1,0,.58A.39.39,0,0,1,24.17,10.19Z" transform="translate(0 0)"/><path class="cls-1" d="M25.59,12.35H25a.41.41,0,1,1,0-.81h.61a.33.33,0,0,0,.33-.33V5.45a.41.41,0,0,1,.82,0v5.76A1.15,1.15,0,0,1,25.59,12.35Z" transform="translate(0 0)"/></svg>