<svg id="圖層_1" data-name="圖層 1" xmlns="http://www.w3.org/2000/svg" xmlns:xlink="http://www.w3.org/1999/xlink" viewBox="0 0 30 30"><defs><style>.cls-1{fill:url(#未命名漸層_29);}.cls-2{fill:url(#未命名漸層_28);}.cls-3{fill:url(#未命名漸層_15);}.cls-4{fill:#062053;}.cls-5{fill:#0a0903;}</style><linearGradient id="未命名漸層_29" x1="15" y1="30" x2="15" gradientUnits="userSpaceOnUse"><stop offset="0" stop-color="#3b9910"/><stop offset="1" stop-color="#63e72c"/></linearGradient><linearGradient id="未命名漸層_28" x1="-636.96" y1="378.26" x2="-636.96" y2="379.56" gradientTransform="matrix(13.76, 0, 0, -12.2, 8778.28, 4633.87)" gradientUnits="userSpaceOnUse"><stop offset="0" stop-color="#8dbfdc"/><stop offset="0.7" stop-color="#c9e1ff"/></linearGradient><linearGradient id="未命名漸層_15" x1="-636.15" y1="378" x2="-636.15" y2="379.08" gradientTransform="matrix(13.69, 0, 0, -12.26, 8729.8, 4659.78)" gradientUnits="userSpaceOnUse"><stop offset="0.08" stop-color="#dee8f0"/><stop offset="1" stop-color="#f5f5ff"/></linearGradient></defs><rect class="cls-1" width="30" height="30" rx="3"/><path class="cls-2" d="M1.83,12.25a7.55,7.55,0,0,0,3.3,6,.6.6,0,0,1,.26.53c0,.06,0,.15,0,.21-.15.59-.41,1.56-.44,1.59a.71.71,0,0,0-.06.24.33.33,0,0,0,.33.32.44.44,0,0,0,.17-.06L7.45,19.9a1,1,0,0,1,.5-.15.92.92,0,0,1,.29,0,10.65,10.65,0,0,0,3.12.45c5.27,0,9.54-3.58,9.54-8s-4.27-8-9.54-8-9.53,3.57-9.53,8"/><path class="cls-3" d="M20.24,24.92a9.06,9.06,0,0,0,2.59-.36.54.54,0,0,1,.23,0,.9.9,0,0,1,.41.12l1.73,1c.06,0,.09.06.15.06a.27.27,0,0,0,.27-.27c0-.05,0-.11,0-.2s-.24-.84-.36-1.34a.38.38,0,0,1,0-.18.57.57,0,0,1,.24-.45,6.29,6.29,0,0,0,2.73-5.06c0-3.69-3.55-6.69-7.93-6.69s-7.92,3-7.92,6.69,3.55,6.7,7.92,6.7Z"/><path class="cls-4" d="M9.41,9.68A1.23,1.23,0,1,1,8.19,8.44,1.21,1.21,0,0,1,9.41,9.68m6.36,0a1.23,1.23,0,1,1-1.23-1.24,1.22,1.22,0,0,1,1.23,1.24"/><path class="cls-5" d="M21.89,16.16A1.07,1.07,0,1,0,23,15.08a1.07,1.07,0,0,0-1.07,1.08m-5.28,0a1.07,1.07,0,1,0,1.07-1.08,1.07,1.07,0,0,0-1.07,1.08"/></svg>