<svg id="圖層_1" data-name="圖層 1" xmlns="http://www.w3.org/2000/svg" xmlns:xlink="http://www.w3.org/1999/xlink" viewBox="0 0 28.46 28.46"><defs><style>.cls-1{fill:url(#未命名漸層_54);}.cls-2{fill:url(#未命名漸層_54-2);}.cls-3{fill:url(#未命名漸層_54-3);}.cls-4{fill:url(#未命名漸層_54-4);}.cls-5{fill:url(#未命名漸層_54-5);}.cls-6{fill:url(#未命名漸層_54-6);}.cls-7{fill:url(#未命名漸層_54-7);}.cls-8{fill:url(#未命名漸層_54-8);}.cls-9{fill:url(#未命名漸層_54-9);}.cls-10{fill:url(#未命名漸層_54-10);}.cls-11{fill:url(#未命名漸層_54-11);}.cls-12{fill:url(#未命名漸層_54-12);}.cls-13{fill:url(#未命名漸層_54-13);}.cls-14{fill:url(#未命名漸層_54-14);}.cls-15{fill:url(#未命名漸層_54-15);}.cls-16{fill:url(#未命名漸層_54-16);}.cls-17{fill:url(#未命名漸層_54-17);}</style><linearGradient id="未命名漸層_54" x1="14.23" y1="21.95" x2="14.23" y2="6.5" gradientUnits="userSpaceOnUse"><stop offset="0" stop-color="#ffca41"/><stop offset="1" stop-color="#ffdb6d"/></linearGradient><linearGradient id="未命名漸層_54-2" x1="14.23" y1="4.54" x2="14.23" y2="0" xlink:href="#未命名漸層_54"/><linearGradient id="未命名漸層_54-3" x1="26.19" y1="15.06" x2="26.19" y2="13.39" xlink:href="#未命名漸層_54"/><linearGradient id="未命名漸層_54-4" x1="14.23" y1="28.46" x2="14.23" y2="23.92" xlink:href="#未命名漸層_54"/><linearGradient id="未命名漸層_54-5" x1="2.27" y1="15.06" x2="2.27" y2="13.39" xlink:href="#未命名漸層_54"/><linearGradient id="未命名漸層_54-6" x1="22.68" y1="7.62" x2="22.68" y2="3.92" xlink:href="#未命名漸層_54"/><linearGradient id="未命名漸層_54-7" x1="22.68" y1="24.53" x2="22.68" y2="20.84" xlink:href="#未命名漸層_54"/><linearGradient id="未命名漸層_54-8" x1="5.77" y1="24.53" x2="5.77" y2="20.84" xlink:href="#未命名漸層_54"/><linearGradient id="未命名漸層_54-9" x1="5.77" y1="7.62" x2="5.77" y2="3.92" xlink:href="#未命名漸層_54"/><linearGradient id="未命名漸層_54-10" x1="18.82" y1="5.34" x2="18.82" y2="1.03" xlink:href="#未命名漸層_54"/><linearGradient id="未命名漸層_54-11" x1="25.27" y1="20.2" x2="25.27" y2="17.43" xlink:href="#未命名漸層_54"/><linearGradient id="未命名漸層_54-12" x1="9.64" y1="27.43" x2="9.64" y2="23.11" xlink:href="#未命名漸層_54"/><linearGradient id="未命名漸層_54-13" x1="3.18" y1="11.02" x2="3.18" y2="8.25" xlink:href="#未命名漸層_54"/><linearGradient id="未命名漸層_54-14" x1="25.28" y1="11.05" x2="25.28" y2="8.28" xlink:href="#未命名漸層_54"/><linearGradient id="未命名漸層_54-15" x1="18.79" y1="27.44" x2="18.79" y2="23.12" xlink:href="#未命名漸層_54"/><linearGradient id="未命名漸層_54-16" x1="3.17" y1="20.17" x2="3.17" y2="17.41" xlink:href="#未命名漸層_54"/><linearGradient id="未命名漸層_54-17" x1="9.66" y1="5.33" x2="9.66" y2="1.01" xlink:href="#未命名漸層_54"/></defs><title>未命名4</title><path class="cls-1" d="M14.23,6.5A7.73,7.73,0,1,0,22,14.23,7.74,7.74,0,0,0,14.23,6.5Zm0,13.79a6.06,6.06,0,1,1,6.06-6.06A6.07,6.07,0,0,1,14.23,20.29Z"/><path class="cls-2" d="M14.23,4.54a.84.84,0,0,0,.83-.84V.83A.83.83,0,0,0,14.23,0a.84.84,0,0,0-.84.83V3.7A.85.85,0,0,0,14.23,4.54Z"/><path class="cls-3" d="M27.62,13.39H24.75a.84.84,0,0,0-.83.84.83.83,0,0,0,.83.83h2.87a.84.84,0,0,0,.84-.83A.85.85,0,0,0,27.62,13.39Z"/><path class="cls-4" d="M14.23,23.92a.84.84,0,0,0-.84.83v2.87a.85.85,0,0,0,.84.84.84.84,0,0,0,.83-.84V24.75A.83.83,0,0,0,14.23,23.92Z"/><path class="cls-5" d="M4.54,14.23a.85.85,0,0,0-.84-.84H.83a.84.84,0,0,0-.83.84.83.83,0,0,0,.83.83H3.7A.84.84,0,0,0,4.54,14.23Z"/><path class="cls-6" d="M21.67,7.62a.84.84,0,0,0,.59-.24l2-2a.85.85,0,0,0,0-1.18.83.83,0,0,0-1.18,0l-2,2a.83.83,0,0,0,0,1.18.84.84,0,0,0,.59.24Z"/><path class="cls-7" d="M22.26,21.08a.83.83,0,0,0-1.18,1.18l2,2a.83.83,0,0,0,1.18-1.18Z"/><path class="cls-8" d="M6.2,21.08l-2,2a.83.83,0,0,0,.59,1.42.86.86,0,0,0,.59-.24l2-2a.85.85,0,0,0,0-1.18.83.83,0,0,0-1.18,0Z"/><path class="cls-9" d="M6.2,7.38a.82.82,0,0,0,.59.24.86.86,0,0,0,.59-.24.85.85,0,0,0,0-1.18l-2-2A.83.83,0,0,0,4.17,5.35Z"/><path class="cls-10" d="M18,5.28a.87.87,0,0,0,.32.06A.84.84,0,0,0,19,4.83l1.1-2.65a.84.84,0,0,0-.45-1.09.82.82,0,0,0-1.09.45L17.5,4.19A.83.83,0,0,0,18,5.28Z"/><path class="cls-11" d="M26.92,18.6l-2.65-1.1A.83.83,0,0,0,23.63,19l2.65,1.1a.87.87,0,0,0,.32.06.83.83,0,0,0,.32-1.6Z"/><path class="cls-12" d="M10.51,23.18a.83.83,0,0,0-1.09.45l-1.1,2.65a.83.83,0,0,0,.45,1.09.87.87,0,0,0,.32.06.84.84,0,0,0,.77-.51L11,24.27a.83.83,0,0,0-.45-1.09Z"/><path class="cls-13" d="M1.54,9.86,4.19,11a.87.87,0,0,0,.32.06.82.82,0,0,0,.77-.51.84.84,0,0,0-.45-1.09L2.18,8.32a.83.83,0,1,0-.64,1.54Z"/><path class="cls-14" d="M23.18,10.53a.86.86,0,0,0,.78.52.7.7,0,0,0,.31-.07l2.66-1.09a.85.85,0,0,0,.45-1.09.83.83,0,0,0-1.09-.45L23.64,9.44a.84.84,0,0,0-.46,1.09Z"/><path class="cls-15" d="M19,23.64a.83.83,0,0,0-1.08-.46.84.84,0,0,0-.46,1.09l1.1,2.66a.82.82,0,0,0,.77.51.91.91,0,0,0,.32-.06.84.84,0,0,0,.45-1.09Z"/><path class="cls-16" d="M5.27,17.93a.84.84,0,0,0-1.09-.46l-2.65,1.1a.83.83,0,0,0,.32,1.6,1,1,0,0,0,.32-.06L4.82,19A.82.82,0,0,0,5.27,17.93Z"/><path class="cls-17" d="M9.44,4.82a.82.82,0,0,0,.77.51.87.87,0,0,0,.32-.06A.82.82,0,0,0,11,4.18L9.89,1.53a.83.83,0,0,0-1.54.64Z"/></svg>