<svg id="圖層_1" data-name="圖層 1" xmlns="http://www.w3.org/2000/svg" xmlns:xlink="http://www.w3.org/1999/xlink" viewBox="0 0 24 24"><defs><style>.cls-1{fill:url(#未命名漸層_23);}.cls-2{fill:url(#未命名漸層_23-2);}</style><linearGradient id="未命名漸層_23" x1="12" y1="24" x2="12" gradientUnits="userSpaceOnUse"><stop offset="0" stop-color="#2cb6dc"/><stop offset="1" stop-color="#4bd1f9"/></linearGradient><linearGradient id="未命名漸層_23-2" x1="15.06" y1="13.61" x2="15.06" y2="4.16" xlink:href="#未命名漸層_23"/></defs><title>未命名-1</title><path class="cls-1" d="M12,0A12,12,0,1,0,24,12,12,12,0,0,0,12,0Zm0,21.45A9.45,9.45,0,1,1,21.45,12,9.46,9.46,0,0,1,12,21.45Z"/><path class="cls-2" d="M18.25,11.63H12.86V5.15a1,1,0,1,0-2,0v7.47a1,1,0,0,0,1,1h6.38a1,1,0,0,0,0-2Z"/></svg>