<svg id="圖層_1" data-name="圖層 1" xmlns="http://www.w3.org/2000/svg" xmlns:xlink="http://www.w3.org/1999/xlink" viewBox="0 0 26.41 25"><defs><style>.cls-1{fill:url(#未命名漸層_37);}.cls-2{fill:url(#未命名漸層_37-2);}</style><linearGradient id="未命名漸層_37" x1="13.2" y1="25" x2="13.2" gradientUnits="userSpaceOnUse"><stop offset="0" stop-color="#ff6800"/><stop offset="1" stop-color="#ff864b"/></linearGradient><linearGradient id="未命名漸層_37-2" x1="12.41" y1="17.51" x2="12.41" y2="7.48" xlink:href="#未命名漸層_37"/></defs><title>未命名-1</title><path class="cls-1" d="M18.13,25H14.36a2.18,2.18,0,0,1-2-1.44h-.13a2.19,2.19,0,0,1-2,1.44H6.36a2.18,2.18,0,0,1-2.15-1.88v-.56a3.74,3.74,0,0,0-1-2.32,11.44,11.44,0,0,1-2.11-3.18A10.57,10.57,0,0,1,.32,15l-.06-.12v-.13A10.28,10.28,0,0,1,0,12.49a10.45,10.45,0,0,1,3.71-7.9,13.2,13.2,0,0,1,8.71-3.16,14.5,14.5,0,0,1,3.16.35A6.45,6.45,0,0,1,19.43,0a2.19,2.19,0,0,1,2.22,1.13,2.18,2.18,0,0,1-.06,2.27,2,2,0,0,0-.37,1.25,11.15,11.15,0,0,1,2.71,3.65A2.73,2.73,0,0,1,26.41,11v2.82A2.69,2.69,0,0,1,24,16.51a11.14,11.14,0,0,1-2.77,3.8l-.14.12a2.34,2.34,0,0,0-.81,1.5v.9A2.17,2.17,0,0,1,18.13,25Zm-4.06-3.39v1.22a.29.29,0,0,0,.29.28h3.77a.29.29,0,0,0,.28-.28v-.92a4.07,4.07,0,0,1,1.37-2.84l.22-.18a9.11,9.11,0,0,0,2.48-3.63l.22-.62h1a.8.8,0,0,0,.8-.8V11a.82.82,0,0,0-.81-.82H22.66l-.24-.61A9,9,0,0,0,19.75,5.9l-.34-.29V5.28A3.68,3.68,0,0,1,20,2.42a.33.33,0,0,0,0-.35.36.36,0,0,0-.3-.18,4.45,4.45,0,0,0-3.08,1.54l-.39.48-.6-.17a12.38,12.38,0,0,0-3.22-.43A11.25,11.25,0,0,0,5,6a8.54,8.54,0,0,0-3.07,6.47,7.76,7.76,0,0,0,.2,1.8l0,.13a7.75,7.75,0,0,0,.68,1.81,9.56,9.56,0,0,0,1.76,2.7,5.63,5.63,0,0,1,1.51,3.59v.31h0v0a.29.29,0,0,0,.28.25h3.77a.29.29,0,0,0,.29-.28V21.55l1,.08a11.44,11.44,0,0,0,1.65,0Z"/><path class="cls-2" d="M13.08,11.88H11.72a.88.88,0,0,1,0-1.76h2.4a.61.61,0,0,0,0-1.22H13V8.09a.61.61,0,1,0-1.21,0V8.9h-.07a2.1,2.1,0,1,0,0,4.19h1.36a.89.89,0,0,1,0,1.77H10.65a.61.61,0,1,0,0,1.21H11.8v.83a.61.61,0,1,0,1.21,0v-.83h.11a2.1,2.1,0,0,0,0-4.19Z"/></svg>