<svg id="圖層_1" data-name="圖層 1" xmlns="http://www.w3.org/2000/svg" xmlns:xlink="http://www.w3.org/1999/xlink" viewBox="0 0 22.29 24"><defs><style>.cls-1{fill:url(#未命名漸層_74);}</style><linearGradient id="未命名漸層_74" x1="11.14" y1="24" x2="11.14" gradientUnits="userSpaceOnUse"><stop offset="0" stop-color="#b800ff"/><stop offset="1" stop-color="#e34bff"/></linearGradient></defs><title>未命名-1</title><path class="cls-1" d="M21.78,3.94a1.65,1.65,0,0,0-1.21-.51H18.86V2.14A2.05,2.05,0,0,0,18.23.63,2.08,2.08,0,0,0,16.71,0h-.85a2.08,2.08,0,0,0-1.52.63,2.05,2.05,0,0,0-.63,1.51V3.43H8.57V2.14A2.05,2.05,0,0,0,7.94.63,2.05,2.05,0,0,0,6.43,0H5.57A2.05,2.05,0,0,0,4.06.63a2.05,2.05,0,0,0-.63,1.51V3.43H1.71a1.64,1.64,0,0,0-1.2.51A1.64,1.64,0,0,0,0,5.14V22.29a1.64,1.64,0,0,0,.51,1.2,1.64,1.64,0,0,0,1.2.51H20.57a1.74,1.74,0,0,0,1.72-1.71V5.14A1.64,1.64,0,0,0,21.78,3.94Zm-6.35-1.8a.41.41,0,0,1,.12-.3.39.39,0,0,1,.31-.13h.85a.39.39,0,0,1,.31.13.41.41,0,0,1,.12.3V6a.41.41,0,0,1-.43.43h-.85A.41.41,0,0,1,15.43,6Zm-10.29,0a.41.41,0,0,1,.12-.3.4.4,0,0,1,.31-.13h.86a.4.4,0,0,1,.31.13.41.41,0,0,1,.12.3V6a.41.41,0,0,1-.12.31.43.43,0,0,1-.31.12H5.57a.43.43,0,0,1-.31-.12A.41.41,0,0,1,5.14,6ZM20.57,22.29H1.71V8.57H20.57Z"/></svg>